<svg version="1.1" id="Layer_1" xmlns="http://www.w3.org/2000/svg" xmlns:xlink="http://www.w3.org/1999/xlink" x="0px" y="0px"
	 width="100%" viewBox="0 0 120 108" enable-background="new 0 0 120 108" xml:space="preserve">
<path fill="#010002" opacity="1.000000" stroke="none" 
	d="
M121.000000,44.000000 
	C121.000000,65.000000 120.948936,85.500282 121.066032,105.999619 
	C121.080322,108.501167 120.499878,109.070297 117.999855,109.064224 
	C80.000084,108.971809 41.999947,108.971817 4.000178,109.064224 
	C1.500232,109.070297 0.928441,108.500084 0.935495,105.999840 
	C1.031422,72.000114 1.031414,37.999943 0.935507,4.000216 
	C0.928454,1.500112 1.500034,0.929690 4.000121,0.935771 
	C41.999893,1.028195 80.000023,1.028186 117.999802,0.935787 
	C120.499687,0.929708 121.095055,1.496602 121.067589,4.000692 
	C120.923195,17.165791 121.000000,30.333317 121.000000,44.000000 
z"/>
<path fill="#5B19E3" opacity="1.000000" stroke="none" 
	d="
M42.580261,44.780289 
	C42.848892,45.419884 43.011360,45.745464 43.276901,46.323856 
	C43.277336,47.004623 43.395634,47.366894 44.014442,47.669930 
	C44.323196,47.667713 44.364521,47.688747 44.367775,47.711700 
	C45.014202,49.874439 46.319592,51.667824 47.593140,53.850105 
	C47.764240,54.132851 47.830574,54.188000 47.818932,54.229534 
	C49.258606,55.357388 49.326756,57.282150 50.580086,58.864788 
	C50.738270,59.145210 50.813011,59.194981 50.807434,59.239532 
	C51.914089,59.914272 51.561638,61.325397 52.422085,62.464325 
	C53.803207,65.899246 55.722179,68.653107 57.648918,71.783356 
	C57.851883,72.049583 57.909523,71.991768 57.938484,72.020538 
	C59.374905,72.732132 60.262699,73.791580 60.500454,75.745972 
	C60.671062,76.273079 60.736034,76.452888 60.853653,76.914597 
	C61.809982,77.751610 61.858536,78.876350 62.664089,79.850410 
	C62.820251,80.099968 62.893681,80.106346 62.889343,80.142944 
	C63.843296,80.737068 63.315075,81.796814 63.985390,82.697113 
	C64.284050,82.841690 64.213593,82.821220 64.230774,82.788803 
	C64.956154,84.201584 65.958786,85.538338 65.802109,87.651672 
	C61.344566,92.201859 57.978168,92.158470 54.807011,87.143127 
	C51.103367,81.285629 47.563961,75.275162 44.718170,68.937263 
	C43.472843,66.163773 41.950352,63.726475 39.522118,61.351166 
	C33.469650,48.944004 26.144037,37.697685 19.593765,26.016623 
	C18.361830,23.819717 16.343788,22.303162 14.241811,20.925961 
	C12.754570,19.951532 11.778169,18.600586 12.437778,16.737844 
	C13.029710,15.066220 14.599442,15.533258 15.858869,15.514841 
	C18.500137,15.476218 21.142605,15.308589 24.167885,15.504255 
	C24.806011,15.526692 25.060814,15.545710 25.593456,15.828736 
	C25.871294,16.092745 25.938181,16.065123 25.921600,16.097282 
	C26.783772,16.732174 26.858753,17.845762 27.627115,18.871872 
	C27.772116,19.132927 27.842411,19.165144 27.832525,19.202520 
	C28.999767,20.037434 28.520197,21.654291 29.642918,22.835922 
	C29.818487,23.106281 29.876925,23.142405 29.862532,23.173594 
	C31.206097,24.369350 31.325621,26.275385 32.637390,27.844025 
	C32.811886,28.115969 32.877937,28.131483 32.866028,28.163248 
	C33.831944,28.708973 33.840263,29.844383 34.533382,30.889084 
	C34.962624,31.672766 35.267395,32.187984 35.713326,32.968987 
	C37.607388,35.023857 37.401264,37.913090 39.594196,39.838440 
	C39.781616,40.116554 39.847210,40.174824 39.835995,40.217232 
	C41.003704,41.032845 40.502586,42.691490 41.778797,43.760853 
	C42.007214,43.987904 42.000458,43.999222 42.005276,43.995995 
	C42.164761,44.150597 42.319431,44.308434 42.580261,44.780289 
z"/>
<path fill="#844EEF" opacity="1.000000" stroke="none" 
	d="
M105.774246,15.687493 
	C109.677864,14.996942 108.184715,16.892174 107.392609,18.311447 
	C103.875137,24.614014 100.389275,30.935970 96.757637,37.172691 
	C89.669342,49.345623 82.491241,61.466267 75.031403,73.744873 
	C69.720436,74.784500 64.736786,75.158386 59.751873,73.249359 
	C61.689613,69.373322 66.119652,68.499748 68.308975,64.732819 
	C68.732292,64.317413 68.903282,64.154343 69.352859,63.776268 
	C74.011063,59.856781 74.669395,53.763695 78.734604,49.457108 
	C80.033875,48.412094 80.808968,47.406548 81.235840,45.786911 
	C81.402153,44.797749 81.673744,44.194946 82.222458,43.357132 
	C82.797531,42.537132 83.082832,41.942295 83.360336,40.963821 
	C86.901535,35.695805 90.255852,30.714996 92.889633,24.892117 
	C96.002663,19.987522 99.860062,16.685543 105.774246,15.687493 
z"/>
<path fill="#6744CD" opacity="1.000000" stroke="none" 
	d="
M24.904818,15.971561 
	C21.576916,16.060518 18.584820,16.020838 15.596947,16.115072 
	C15.042131,16.132570 14.298587,16.561434 14.008580,17.028141 
	C13.608769,17.671555 14.126034,18.314247 14.760256,18.595026 
	C21.467165,21.564259 23.838501,28.128305 26.940416,33.861656 
	C31.517813,42.322182 37.289520,50.127441 40.945034,59.479164 
	C42.113590,62.357124 43.738918,64.680580 44.357265,67.380814 
	C44.810505,69.360046 45.619450,71.568268 43.074863,73.391251 
	C37.708214,67.711548 34.703587,60.656994 30.808741,54.162029 
	C23.836975,42.536053 17.351345,30.619287 10.443257,18.953911 
	C8.519620,15.705552 9.271506,14.877455 12.676016,14.979210 
	C16.495592,15.093373 20.318684,15.089893 24.512293,15.215799 
	C25.003586,15.492377 25.122833,15.690755 24.904818,15.971561 
z"/>
<path fill="#5E1EDF" opacity="1.000000" stroke="none" 
	d="
M105.675903,15.381475 
	C103.187454,19.642559 97.560356,20.558563 94.672203,25.180656 
	C94.143829,25.303585 93.916977,25.285645 93.381393,25.120602 
	C92.358498,24.309763 91.714600,23.547678 90.548759,23.791885 
	C85.196732,24.912970 79.773140,24.299089 74.385658,24.323366 
	C71.488335,24.336422 69.651108,25.115286 69.218826,28.539856 
	C67.973747,30.205360 67.114693,31.686924 66.138100,33.517712 
	C65.872375,33.777088 65.899269,33.876511 65.849388,33.889297 
	C64.053864,36.269966 63.066547,39.065861 61.277145,41.792381 
	C61.060772,42.053593 60.999847,42.000816 61.030800,42.025887 
	C60.577896,42.668037 60.122498,43.325920 58.858036,43.176361 
	C55.046124,38.386127 54.632092,33.456913 57.715279,28.610338 
	C60.225170,24.664946 60.199883,20.159222 61.622169,15.660488 
	C76.366356,14.952068 90.804962,14.595917 105.675903,15.381475 
z"/>
<path fill="#5E1EDF" opacity="1.000000" stroke="none" 
	d="
M69.929222,64.967209 
	C69.040810,69.551239 65.087059,70.335983 61.438072,72.011871 
	C60.579353,67.997620 63.583492,65.441002 65.513947,62.001152 
	C65.665596,61.654789 65.682594,61.727631 65.645454,61.732025 
	C67.243645,60.847492 66.598633,58.846397 67.854248,57.413681 
	C68.106743,57.178230 68.093109,57.102737 68.131027,57.096931 
	C69.844574,54.404121 71.466927,51.688793 72.889526,48.518841 
	C73.161537,48.315002 73.131683,48.180195 73.192657,48.147812 
	C74.160400,46.695869 74.904129,45.189541 75.884415,43.496521 
	C76.187523,43.114964 76.226341,42.905331 76.406845,42.408997 
	C77.543427,41.158329 78.113556,39.940937 78.863670,38.457375 
	C79.168709,38.032436 79.214622,37.826450 79.373444,37.324718 
	C79.507523,36.833500 79.528687,36.638027 79.823105,36.331593 
	C80.096359,36.220627 80.087166,36.112106 80.141479,36.108139 
	C81.140289,34.394962 82.485413,32.943661 83.531052,30.904173 
	C85.000481,29.107355 87.149231,28.330750 87.812920,25.782087 
	C89.407631,24.069021 90.966232,23.263348 93.294762,24.323572 
	C93.735458,24.692823 93.859863,24.818998 94.177475,25.133350 
	C92.891953,31.522703 89.074203,36.483719 85.440758,41.890743 
	C84.592468,42.383114 84.253380,42.856758 84.129929,43.793991 
	C83.903252,44.614952 83.667572,45.130726 83.237534,45.855980 
	C82.028297,46.924320 81.405289,48.029015 80.983673,49.604507 
	C77.452545,54.890507 76.292259,61.396080 70.560883,65.119911 
	C70.050163,64.991768 69.891716,64.859871 69.929222,64.967209 
z"/>
<path fill="#724AE8" opacity="1.000000" stroke="none" 
	d="
M42.687531,73.700485 
	C42.995323,69.133064 42.494682,64.816727 41.044044,60.220551 
	C46.706982,67.065544 50.665676,75.346062 55.158405,83.301247 
	C57.242680,86.991837 59.441433,90.202942 64.829498,87.814590 
	C65.563332,87.516922 65.929466,87.452408 66.530807,87.760361 
	C66.061890,89.541763 65.383980,91.119347 64.440269,92.884232 
	C63.239826,93.596573 63.609463,94.559486 63.135380,95.482391 
	C62.855541,95.631699 62.892159,95.819931 62.802246,95.853241 
	C62.658142,96.247276 62.452267,96.463707 62.003830,96.755066 
	C61.659283,97.484978 61.405617,97.995667 60.948425,98.711456 
	C59.263630,100.351303 57.992626,99.891151 57.197865,98.273315 
	C54.530590,92.843750 50.298367,88.298164 47.958374,82.380157 
	C47.594589,82.274330 47.705879,82.264748 47.663887,82.301575 
	C46.825504,79.403625 44.707218,77.170593 43.203796,74.240639 
	C42.957260,74.000999 42.700356,73.849144 42.687531,73.700485 
z"/>
<path fill="#824EEA" opacity="1.000000" stroke="none" 
	d="
M61.589592,15.317184 
	C63.320946,19.360212 64.247650,23.166315 61.259529,26.983763 
	C57.703918,31.526207 57.646442,36.771221 59.049316,42.551495 
	C59.630276,43.603733 59.588959,44.236393 58.721252,44.892830 
	C54.784210,41.579868 53.880287,36.489452 50.583920,32.940392 
	C50.243748,32.574135 50.187023,31.534208 50.456238,31.075138 
	C53.525856,25.840717 56.670227,20.649693 59.859104,15.486897 
	C60.026947,15.215160 60.773697,15.300990 61.589592,15.317184 
z"/>
<path fill="#8B50FB" opacity="1.000000" stroke="none" 
	d="
M93.782013,24.353928 
	C92.248199,25.243660 90.885345,25.920675 89.256500,26.798042 
	C88.010201,27.930241 87.165657,29.013950 85.640015,29.794329 
	C85.086449,29.894934 84.859856,29.902752 84.298447,29.850010 
	C83.759644,29.690113 83.555664,29.590771 83.048210,29.337370 
	C82.373192,29.186581 82.001640,29.189850 81.353455,29.158085 
	C76.994690,29.878908 72.883659,29.406988 68.437157,29.087500 
	C64.473305,21.887949 64.473297,21.883293 72.353180,21.875238 
	C78.794388,21.868654 85.236580,21.818537 91.675911,21.928898 
	C92.798630,21.948139 95.716766,20.851864 93.782013,24.353928 
z"/>
<path fill="#6744CD" opacity="1.000000" stroke="none" 
	d="
M47.708885,82.625870 
	C51.741573,85.252823 53.225452,90.188179 56.216286,94.017357 
	C57.481979,95.637833 57.507839,98.250015 60.411163,98.870972 
	C60.107544,102.125710 58.575783,102.204247 57.077839,99.643410 
	C53.870518,94.160263 50.264973,88.887947 47.708885,82.625870 
z"/>
<path fill="#4C1EAC" opacity="1.000000" stroke="none" 
	d="
M65.362610,61.809486 
	C65.134132,65.338219 62.419006,68.020584 61.147076,71.742462 
	C60.733250,74.027428 62.168568,73.693436 63.212940,73.705620 
	C66.754501,73.746925 70.296745,73.729218 74.275604,73.807625 
	C70.312309,75.670891 65.470627,73.213020 60.853523,75.694656 
	C58.994385,75.530464 58.510555,74.115639 58.002373,72.371063 
	C61.856850,69.760269 61.629536,64.576225 65.362610,61.809486 
z"/>
<path fill="#4C1EAC" opacity="1.000000" stroke="none" 
	d="
M67.868317,29.036520 
	C72.120201,28.790949 76.149956,28.819429 80.628265,28.985481 
	C78.949348,29.228029 76.803352,29.559698 74.698547,29.387590 
	C71.074883,29.091291 68.214767,30.003647 66.181648,33.595638 
	C65.828346,32.035946 66.651833,30.639326 67.868317,29.036520 
z"/>
<path fill="#591AD8" opacity="1.000000" stroke="none" 
	d="
M57.832863,71.693909 
	C54.514126,70.301979 53.496216,66.941986 52.045624,63.484112 
	C52.095631,62.916576 52.233269,62.686749 52.638596,62.756607 
	C54.542141,65.816933 56.177994,68.577583 57.832863,71.693909 
z"/>
<path fill="#6744CD" opacity="1.000000" stroke="none" 
	d="
M42.967529,74.363861 
	C46.062645,75.573288 47.340157,78.308861 47.700607,81.958176 
	C45.228008,80.317245 44.338520,77.378227 42.967529,74.363861 
z"/>
<path fill="#4C1EAC" opacity="1.000000" stroke="none" 
	d="
M72.873367,48.476360 
	C73.026215,51.835785 71.005264,54.390358 68.479675,56.968353 
	C69.208763,54.047504 70.399101,51.082508 72.873367,48.476360 
z"/>
<path fill="#4C1EAC" opacity="1.000000" stroke="none" 
	d="
M61.384319,41.947018 
	C61.630493,38.999596 63.028088,36.377335 65.491058,34.025948 
	C65.461433,37.076931 63.382893,39.354698 61.384319,41.947018 
z"/>
<path fill="#4C1EAC" opacity="1.000000" stroke="none" 
	d="
M82.725540,29.519527 
	C82.981171,29.114676 83.217606,29.046038 83.823273,28.983620 
	C84.295815,29.147106 84.399132,29.304375 84.580467,29.732897 
	C84.621864,30.188719 84.585243,30.373285 84.405334,30.801037 
	C83.747238,33.108215 82.579788,34.708660 80.508347,35.996601 
	C81.032631,34.021362 81.869484,31.938553 82.725540,29.519527 
z"/>
<path fill="#3F1795" opacity="1.000000" stroke="none" 
	d="
M39.788399,39.762779 
	C36.873760,39.080227 36.781006,36.259243 35.864635,33.594360 
	C38.723106,34.300335 38.029758,37.639324 39.788399,39.762779 
z"/>
<path fill="#3F1795" opacity="1.000000" stroke="none" 
	d="
M47.790634,53.782555 
	C45.661343,52.810574 44.467167,50.916531 44.278992,48.091038 
	C46.152039,49.251408 46.794788,51.456593 47.790634,53.782555 
z"/>
<path fill="#4C1EAC" opacity="1.000000" stroke="none" 
	d="
M66.894463,87.753891 
	C66.398254,87.934914 66.056694,87.905655 65.467545,87.802086 
	C64.876030,86.316368 64.532104,84.904953 64.218071,83.124962 
	C65.270477,83.068253 65.666115,83.949120 66.354614,85.137756 
	C66.756378,86.167557 66.902748,86.855583 66.894463,87.753891 
z"/>
<path fill="#3F1795" opacity="1.000000" stroke="none" 
	d="
M32.820042,27.775417 
	C30.873758,27.373575 30.426931,25.589437 29.853828,23.547157 
	C31.616419,24.068880 32.292454,25.702456 32.820042,27.775417 
z"/>
<path fill="#3F1795" opacity="1.000000" stroke="none" 
	d="
M50.751434,58.808327 
	C48.869198,58.369232 48.387985,56.624275 47.807663,54.609661 
	C49.426849,55.224972 50.279854,56.718575 50.751434,58.808327 
z"/>
<path fill="#4C1EAC" opacity="1.000000" stroke="none" 
	d="
M75.879440,43.495033 
	C76.108368,45.205326 75.307571,46.700481 73.550934,47.988586 
	C73.517220,46.355721 74.180634,44.807739 75.879440,43.495033 
z"/>
<path fill="#4C1EAC" opacity="1.000000" stroke="none" 
	d="
M78.845398,38.366379 
	C79.133064,39.836185 78.854973,41.284958 76.861542,42.065742 
	C76.842819,40.702080 77.384506,39.419575 78.845398,38.366379 
z"/>
<path fill="#4C1EAC" opacity="1.000000" stroke="none" 
	d="
M58.511738,45.134628 
	C58.559982,44.436810 58.752758,43.950603 59.023300,43.213860 
	C59.581493,42.712971 60.061920,42.462616 60.802048,42.131607 
	C60.830200,43.565674 60.824226,45.245056 58.511738,45.134628 
z"/>
<path fill="#4C1EAC" opacity="1.000000" stroke="none" 
	d="
M67.796867,57.316536 
	C68.052246,58.851662 67.485062,60.297291 65.912598,61.583931 
	C65.914070,60.168613 66.142395,58.566826 67.796867,57.316536 
z"/>
<path fill="#3F1795" opacity="1.000000" stroke="none" 
	d="
M41.994938,43.668190 
	C40.501522,43.530048 39.987785,42.342365 39.794952,40.600082 
	C40.544075,41.289253 41.263367,42.318867 41.994938,43.668190 
z"/>
<path fill="#3F1795" opacity="1.000000" stroke="none" 
	d="
M29.846668,22.777496 
	C28.441143,22.486511 28.052547,21.239893 27.807827,19.575672 
	C28.992208,19.998999 29.511534,21.173967 29.846668,22.777496 
z"/>
<path fill="#3F1795" opacity="1.000000" stroke="none" 
	d="
M52.890717,62.732697 
	C52.906292,63.056290 52.433796,63.115967 52.195892,63.131187 
	C51.574894,62.083885 51.191803,61.021366 50.805283,59.621464 
	C51.910648,60.048634 52.561478,61.117020 52.890717,62.732697 
z"/>
<path fill="#3F1795" opacity="1.000000" stroke="none" 
	d="
M27.793907,18.810741 
	C26.616928,18.767313 26.123856,17.876919 25.903065,16.450855 
	C27.047464,16.506359 27.609976,17.352974 27.793907,18.810741 
z"/>
<path fill="#3F1795" opacity="1.000000" stroke="none" 
	d="
M34.733860,30.842476 
	C33.568935,30.754045 33.111042,29.863363 32.853210,28.506966 
	C33.882538,28.656771 34.712410,29.285019 34.733860,30.842476 
z"/>
<path fill="#4C1EAC" opacity="1.000000" stroke="none" 
	d="
M62.795372,79.796425 
	C61.662895,79.781837 61.142654,78.928833 60.910576,77.513412 
	C61.527702,77.961960 62.149097,78.727425 62.795372,79.796425 
z"/>
<path fill="#6744CD" opacity="1.000000" stroke="none" 
	d="
M63.104004,95.462494 
	C63.137383,94.901024 63.419220,94.170357 63.937767,93.255615 
	C63.900471,93.812126 63.626469,94.552711 63.104004,95.462494 
z"/>
<path fill="#4C1EAC" opacity="1.000000" stroke="none" 
	d="
M64.248810,82.523544 
	C63.423378,82.442741 63.038784,81.714035 62.885849,80.501915 
	C63.892887,80.484283 63.834259,81.488441 64.248810,82.523544 
z"/>
<path fill="#6744CD" opacity="1.000000" stroke="none" 
	d="
M62.148445,96.885239 
	C62.064732,96.628098 62.216522,96.281898 62.540321,95.911133 
	C62.602875,96.189766 62.493416,96.492981 62.148445,96.885239 
z"/>
<path fill="#4C1EAC" opacity="1.000000" stroke="none" 
	d="
M79.892014,36.259346 
	C80.085754,36.473694 79.987938,36.686726 79.644630,36.944347 
	C79.334251,36.724945 79.401360,36.481308 79.892014,36.259346 
z"/>
<path fill="#5B19E3" opacity="1.000000" stroke="none" 
	d="
M66.620575,85.446884 
	C66.610001,85.479538 66.534721,85.408516 66.532593,85.386688 
	C66.530457,85.364861 66.631157,85.414230 66.620575,85.446884 
z"/>
<path fill="#3F1795" opacity="1.000000" stroke="none" 
	d="
M24.892666,16.091358 
	C24.567554,16.053989 24.715195,15.669558 24.799767,15.481779 
	C25.250130,15.194702 25.538849,15.302273 25.810896,15.854727 
	C25.653456,16.104740 25.435617,16.116734 24.892666,16.091358 
z"/>
<path fill="#3F1795" opacity="1.000000" stroke="none" 
	d="
M42.698425,44.850739 
	C42.375851,44.978863 42.164013,44.765427 42.030502,44.223373 
	C42.369831,44.053642 42.603275,44.258446 42.698425,44.850739 
z"/>
<path fill="#3F1795" opacity="1.000000" stroke="none" 
	d="
M44.255997,47.420418 
	C44.042259,47.476559 43.761322,47.285408 43.430176,46.835461 
	C43.649578,46.775486 43.919189,46.974308 44.255997,47.420418 
z"/>
<path fill="#591AD8" opacity="1.000000" stroke="none" 
	d="
M81.170929,49.702927 
	C79.988739,48.094158 80.890625,47.026028 82.750870,46.148277 
	C82.494804,47.204262 81.946426,48.343071 81.170929,49.702927 
z"/>
<path fill="#591AD8" opacity="1.000000" stroke="none" 
	d="
M84.316330,43.876621 
	C83.535858,43.246330 83.588898,42.576336 84.926872,42.147781 
	C84.953613,42.619797 84.723671,43.136932 84.316330,43.876621 
z"/>
<path fill="#591AD8" opacity="1.000000" stroke="none" 
	d="
M84.591858,30.997456 
	C84.292122,30.817469 84.322182,30.590717 84.406006,30.025105 
	C84.459763,29.686241 84.623283,29.281248 84.802689,29.156736 
	C86.109894,28.406528 87.237694,27.780830 88.678001,27.076765 
	C88.521950,29.229736 87.206764,30.589476 84.591858,30.997456 
z"/>
<path fill="#591AD8" opacity="1.000000" stroke="none" 
	d="
M70.137924,65.177567 
	C69.738556,64.943451 69.351936,64.680458 68.965309,64.417465 
	C69.118149,64.267159 69.270996,64.116852 69.423836,63.966549 
	C69.614708,64.211983 69.805573,64.457413 70.102531,64.913254 
	C70.208618,65.123665 70.150658,65.148682 70.137924,65.177567 
z"/>
<path fill="#5E1EDF" opacity="1.000000" stroke="none" 
	d="
M84.785316,29.010033 
	C84.883095,29.194530 84.770325,29.346607 84.551773,29.587349 
	C84.459763,29.686241 84.296120,29.348572 84.244308,29.169205 
	C84.192505,28.989840 84.588539,28.987837 84.785316,29.010033 
z"/>
</svg>