<svg version="1.1" id="Layer_1" xmlns="http://www.w3.org/2000/svg" xmlns:xlink="http://www.w3.org/1999/xlink" x="0px" y="0px"
	 width="100%" viewBox="0 0 500 500" enable-background="new 0 0 500 500" xml:space="preserve">
<path fill="#000000" opacity="1.000000" stroke="none" 
	d="
M318.000000,501.000000 
	C213.333359,501.000000 109.166695,500.978394 5.000182,501.095459 
	C1.576315,501.099304 0.903034,500.423889 0.905299,497.000031 
	C1.013777,333.000122 1.013757,169.000137 0.905338,5.000256 
	C0.903075,1.576976 1.575765,0.903020 4.999867,0.905285 
	C168.999756,1.013775 332.999725,1.013760 496.999634,0.905354 
	C500.422638,0.903091 501.096985,1.575412 501.094727,4.999747 
	C500.986206,168.999634 500.986237,332.999603 501.094604,496.999512 
	C501.096893,500.422272 500.425964,501.104706 497.000214,501.096985 
	C437.500366,500.962433 378.000153,501.000000 318.000000,501.000000 
z"/>
<path fill="#8750F3" opacity="1.000000" stroke="none" 
	d="
M318.670654,132.518219 
	C315.528748,142.654510 309.283813,151.107803 304.214172,160.178192 
	C295.220490,176.269379 285.858978,192.155304 276.606964,208.101334 
	C275.621582,209.799667 274.960480,211.763397 272.815369,212.991394 
	C267.810913,213.085190 263.210785,213.136597 258.123444,213.124023 
	C257.173767,213.558777 256.578644,213.488663 255.754395,213.262390 
	C255.043579,213.095779 254.567871,213.110901 253.381134,213.061737 
	C250.711685,210.094833 254.232803,210.073761 255.302490,208.446533 
	C262.291107,205.377350 267.596558,201.240921 271.222137,194.532425 
	C279.331512,179.527405 288.273346,164.979874 296.512085,150.037552 
	C297.548981,148.156876 298.802521,146.410416 300.492432,144.565552 
	C300.751953,144.017685 300.874939,143.806778 301.258301,143.337402 
	C301.735779,142.967987 301.952942,142.857056 302.523804,142.670090 
	C303.114502,142.574417 303.351562,142.554764 303.941223,142.524323 
	C310.223236,142.480179 310.661743,142.108353 311.381134,136.099243 
	C309.660950,133.684326 307.330170,134.412903 305.279266,134.402115 
	C292.350098,134.334106 279.420410,134.359375 266.490875,134.371201 
	C259.694275,134.377411 259.694275,134.391510 259.500885,141.226715 
	C259.414001,142.339981 259.219513,143.052307 258.722260,144.070419 
	C258.126282,145.341736 257.766174,146.292862 257.555542,147.694046 
	C253.866821,152.524994 252.836517,157.663910 253.320114,163.269745 
	C253.561722,166.070465 252.947418,168.822250 252.060272,171.819458 
	C251.111130,173.676636 250.281052,173.060471 249.723831,172.103378 
	C246.717865,166.940262 243.841385,161.700958 240.785858,156.567917 
	C239.707916,154.757065 240.516815,153.352112 241.317688,151.945236 
	C244.601303,146.176941 248.011017,140.480133 251.268402,134.697357 
	C252.260406,132.936295 253.371017,132.083893 255.548401,132.098236 
	C276.469177,132.236038 297.390778,132.251755 318.670654,132.518219 
z"/>
<path fill="#6946D2" opacity="1.000000" stroke="none" 
	d="
M183.536499,135.078644 
	C183.303970,134.424484 183.184357,134.058044 183.172424,133.123489 
	C186.264450,131.915649 188.738220,133.064880 191.365906,134.926208 
	C191.892014,135.173355 192.104599,135.267776 192.638489,135.501129 
	C195.846634,138.531479 199.384613,140.790314 201.738831,144.665359 
	C202.418808,145.389694 202.925003,145.823639 203.412079,146.682388 
	C203.779205,147.744125 203.953644,148.542282 204.740570,149.377136 
	C205.078644,149.753006 205.195007,149.920807 205.426407,150.371521 
	C205.789154,151.219742 206.091064,151.754120 206.662781,152.498077 
	C207.228912,153.310165 207.414780,153.932129 207.493683,154.931229 
	C211.128067,160.921677 214.215973,166.876343 217.853134,172.891327 
	C218.842712,173.990067 219.724854,174.743195 220.319000,176.132965 
	C221.201752,179.331131 221.985458,182.199417 225.184967,183.980347 
	C226.038361,185.015152 226.405212,185.904297 226.632599,187.222748 
	C227.173187,192.060989 230.571793,195.103577 232.521210,198.853241 
	C234.137848,201.962845 235.263977,205.749527 239.037933,207.881073 
	C240.534576,210.132294 241.204620,212.418518 242.520325,214.768784 
	C243.017410,217.444214 244.777206,218.995224 246.208817,221.131500 
	C247.062103,222.135574 247.390060,223.022217 247.754120,224.278976 
	C248.718933,227.609406 251.874664,229.509399 251.788925,233.297638 
	C251.854477,235.591202 252.512161,237.516785 252.223175,239.458115 
	C251.844406,242.002411 253.302948,242.928970 255.594284,243.720047 
	C254.626419,246.631531 253.970566,250.664154 251.179993,250.995255 
	C248.753555,251.283188 248.082077,247.160110 246.801697,244.946564 
	C225.692963,208.453369 204.682175,171.903503 183.536499,135.078644 
z"/>
<path fill="#5B1BDC" opacity="1.000000" stroke="none" 
	d="
M191.244202,136.715302 
	C188.610443,135.607712 186.231476,134.267609 183.566315,132.741455 
	C189.687180,131.208878 196.167511,132.227020 202.608307,131.961807 
	C204.954956,131.865173 205.534149,133.835571 206.428177,135.382431 
	C220.172348,159.163101 233.910858,182.947037 247.642014,206.735229 
	C250.696228,212.026474 251.261261,212.097412 254.228027,206.976089 
	C264.076355,189.975647 273.865753,172.941055 283.680817,155.921326 
	C284.424774,154.631271 285.390442,153.402008 284.451508,151.397278 
	C285.107117,149.624649 286.424652,149.384567 288.307068,149.746735 
	C291.680786,153.860626 291.636414,156.226624 288.123291,159.130386 
	C286.127838,160.779694 285.074249,162.867599 283.831757,165.046463 
	C279.090973,173.360031 274.164948,181.571198 269.281525,189.804688 
	C266.185730,195.024246 265.171692,201.390854 260.235352,205.637848 
	C258.914093,206.774628 257.130737,207.631210 256.235687,209.775787 
	C255.195190,211.314468 253.111984,210.904297 252.673279,212.828232 
	C252.769318,217.949936 256.478912,221.250320 258.358521,225.388367 
	C259.571106,228.057892 261.931915,230.191269 261.910522,233.508667 
	C260.665344,234.329575 259.540192,234.638748 257.993530,233.922318 
	C256.276520,232.648956 256.458801,230.791595 255.518982,229.108948 
	C255.319977,227.434570 254.357849,226.455460 253.756729,224.969193 
	C253.072281,223.046371 252.146606,221.646240 250.728638,220.185638 
	C249.219772,218.997040 248.620377,217.541565 247.708176,215.923553 
	C247.913681,213.628128 246.858612,212.247879 245.376984,210.690475 
	C240.838028,202.598755 235.314789,195.505203 231.162628,187.183228 
	C231.211075,184.540695 230.380447,182.831497 227.855087,181.762482 
	C224.708710,175.918045 221.650803,170.412277 217.917542,164.900909 
	C217.409561,164.009369 217.178299,163.370422 216.796906,162.428925 
	C216.632187,161.893478 216.589615,161.673111 216.481049,161.123779 
	C216.092880,159.159241 214.680161,158.220779 213.727448,156.581436 
	C209.274673,151.059036 207.483017,144.351624 203.089554,138.823303 
	C202.414841,137.951965 201.949326,137.324783 200.875336,136.929199 
	C197.592682,135.568192 194.597473,134.616287 191.244202,136.715302 
z"/>
<path fill="#636367" opacity="1.000000" stroke="none" 
	d="
M198.677719,292.967499 
	C208.315994,292.960907 208.225494,292.958527 207.977753,302.412201 
	C207.889877,305.765686 206.559052,308.116943 203.806015,309.850891 
	C196.884750,314.210144 186.239548,311.941010 182.038910,305.188293 
	C177.597702,298.048889 180.232239,287.549988 187.601822,283.325897 
	C192.338760,280.610748 197.418106,280.491730 202.631195,281.619171 
	C205.581070,282.257172 206.346649,284.202789 205.751572,286.830536 
	C204.970016,290.281769 202.785614,287.845276 201.470963,287.524689 
	C192.350662,285.300415 185.663956,290.504913 187.034271,298.939423 
	C187.903427,304.289215 193.936798,307.631195 198.866257,305.513672 
	C200.749619,304.704620 201.729691,303.301819 201.797180,301.271179 
	C201.875900,298.902618 200.208099,298.593842 198.444656,298.608856 
	C196.810318,298.622742 195.952652,298.018555 195.906158,296.315765 
	C195.858795,294.580811 195.669403,292.817871 198.677719,292.967499 
z"/>
<path fill="#646469" opacity="1.000000" stroke="none" 
	d="
M340.042267,307.716125 
	C340.030914,299.768890 340.041382,292.287354 340.006073,284.806091 
	C339.996033,282.673157 339.997681,280.934418 343.040009,280.935577 
	C346.043823,280.936737 346.162262,282.600464 346.106781,284.775146 
	C346.049438,287.022827 346.094025,289.273102 346.094025,292.027435 
	C352.331818,289.035339 352.502075,278.629547 361.900604,281.427765 
	C360.994873,284.490906 358.699310,286.522308 356.840668,288.742065 
	C354.639618,291.370758 354.205017,293.670898 356.026703,296.790253 
	C358.761597,301.473480 361.020233,306.434814 363.506012,311.326385 
	C358.659058,313.160065 355.806366,311.780914 354.283325,307.326660 
	C353.751740,305.772003 352.863556,304.320923 352.008484,302.900635 
	C351.204315,301.564819 350.704010,299.289612 348.633972,300.023804 
	C347.184662,300.537842 346.173157,302.202820 346.138031,304.043152 
	C346.112640,305.372559 346.145325,306.704468 346.076660,308.031342 
	C345.987030,309.764130 346.556885,311.810150 343.656067,312.002228 
	C340.726959,312.196198 339.742523,310.879242 340.042267,307.716125 
z"/>
<path fill="#646469" opacity="1.000000" stroke="none" 
	d="
M302.889984,290.716980 
	C303.759888,288.318695 304.576965,286.311401 305.224945,284.250854 
	C305.865509,282.213837 306.622284,280.859711 309.265442,280.875671 
	C311.875305,280.891479 313.080261,281.792938 313.923187,284.173767 
	C316.754181,292.170074 319.803925,300.088715 322.690094,308.065979 
	C323.128204,309.276855 324.714783,311.187469 322.365265,311.723511 
	C320.367432,312.179291 317.087280,313.291138 316.474152,310.052551 
	C315.476959,304.785278 312.067444,304.884277 308.032257,304.936462 
	C305.281128,304.972046 303.652100,305.656036 303.078644,308.501160 
	C302.764313,310.060638 302.472656,311.975586 300.204865,311.981110 
	C298.899200,311.984253 297.290283,312.207520 296.357758,311.557373 
	C294.951111,310.576660 296.321808,309.174896 296.732300,308.007812 
	C298.719299,302.358551 300.748718,296.724243 302.889984,290.716980 
z"/>
<path fill="#646469" opacity="1.000000" stroke="none" 
	d="
M245.931244,297.907715 
	C247.209259,301.398254 248.463715,304.484222 249.486664,307.645111 
	C249.919739,308.983276 251.891022,310.981628 249.404480,311.741180 
	C247.482529,312.328308 244.071960,313.270721 243.497757,310.095337 
	C242.539459,304.795898 239.170715,304.917572 235.127243,304.921509 
	C232.080704,304.924469 230.370163,305.926544 229.945038,308.879028 
	C229.485886,312.067932 227.349594,312.181488 224.817139,312.034576 
	C222.872833,311.921844 222.558670,311.082886 223.147568,309.465576 
	C226.391571,300.556274 229.669205,291.658844 232.837173,282.722565 
	C233.645264,280.443115 235.424377,281.174652 236.965866,280.982361 
	C238.943024,280.735718 239.995758,281.647888 240.641769,283.480896 
	C242.300659,288.188049 244.081787,292.852112 245.931244,297.907715 
z"/>
<path fill="#626165" opacity="1.000000" stroke="none" 
	d="
M398.037567,310.606628 
	C392.690948,313.144684 387.237122,311.757874 381.877655,311.809326 
	C380.131897,311.826050 380.238586,309.970886 380.234955,308.672821 
	C380.212219,300.511963 380.267029,292.350800 380.220642,284.190186 
	C380.207611,281.897949 381.057068,280.865784 383.454437,280.941833 
	C387.281464,281.063202 391.115479,281.013672 394.945648,280.964996 
	C396.830383,280.941040 397.675568,281.741272 397.647705,283.639954 
	C397.619690,285.549713 397.151276,286.902252 394.854919,286.830292 
	C393.025848,286.772949 391.192230,286.853394 389.360779,286.883026 
	C387.476379,286.913544 386.695404,287.925934 386.766602,289.754822 
	C386.830261,291.390900 387.705292,292.158905 389.272369,292.239288 
	C390.103333,292.281921 390.938965,292.341888 391.767639,292.299316 
	C393.826172,292.193634 395.344391,292.505402 395.352722,295.161224 
	C395.360931,297.773682 393.936523,298.181885 391.831238,298.070679 
	C389.027313,297.922546 386.636841,297.912994 386.502075,301.985992 
	C386.338409,306.933258 389.543854,306.111206 392.472595,306.216064 
	C395.198151,306.313629 399.069153,304.896851 398.037567,310.606628 
z"/>
<path fill="#636367" opacity="1.000000" stroke="none" 
	d="
M125.269958,291.483704 
	C123.201897,297.515076 121.167847,303.147003 119.383011,308.856842 
	C118.772232,310.810760 118.198296,312.076324 115.806587,312.083618 
	C113.572487,312.090454 112.596756,311.208740 111.905098,309.169098 
	C109.181465,301.137360 106.238647,293.179810 103.525826,285.144592 
	C103.101044,283.886383 101.212601,281.769867 103.971619,281.145447 
	C105.999992,280.686371 108.666641,280.040680 109.662903,283.365265 
	C110.903107,287.503967 112.379631,291.572845 113.800079,295.655884 
	C114.215240,296.849274 114.414047,298.231720 116.140923,298.981964 
	C118.581017,294.588196 119.067337,289.556366 120.871353,285.006012 
	C121.354866,283.786438 121.578888,282.110382 122.494133,281.495544 
	C123.996941,280.486023 126.188210,280.479370 127.715134,281.379730 
	C129.143860,282.222198 127.832809,283.791687 127.488937,284.973785 
	C126.885643,287.047668 126.106895,289.070557 125.269958,291.483704 
z"/>
<path fill="#646469" opacity="1.000000" stroke="none" 
	d="
M158.492645,292.408386 
	C161.676605,293.017151 160.992584,295.172852 160.647217,296.817261 
	C160.273087,298.598541 158.482483,297.992188 157.279526,297.987396 
	C154.302917,297.975555 151.671005,297.770447 151.910889,302.233978 
	C152.073273,305.255615 152.933945,306.507599 155.966919,306.238220 
	C157.618912,306.091461 159.296631,306.261169 160.960968,306.218781 
	C162.811905,306.171722 163.727127,306.947205 163.713593,308.869476 
	C163.699844,310.820007 163.124329,312.046783 160.872452,312.007263 
	C156.876434,311.937134 152.876968,311.919983 148.881699,312.007050 
	C146.717346,312.054199 145.895554,311.070496 145.899551,309.023804 
	C145.915848,300.696625 145.916840,292.369263 145.878586,284.042175 
	C145.869431,282.049652 146.496246,280.922455 148.730728,280.973480 
	C152.559540,281.060913 156.392746,281.049347 160.222229,280.978027 
	C162.397095,280.937531 163.107605,281.878479 163.022018,284.001007 
	C162.934982,286.158936 162.022156,286.979736 159.931290,286.825897 
	C158.606293,286.728394 157.266876,286.786316 155.935471,286.826111 
	C154.132599,286.879944 152.153168,286.553375 152.047318,289.387970 
	C151.930511,292.516205 154.055649,292.284729 156.073181,292.336212 
	C156.739182,292.353180 157.405396,292.361877 158.492645,292.408386 
z"/>
<path fill="#8B50FC" opacity="1.000000" stroke="none" 
	d="
M289.337952,150.862549 
	C287.658783,150.786545 286.328247,150.823486 284.616547,150.943909 
	C282.622223,151.065781 281.009094,151.104172 278.920807,151.081741 
	C277.100647,151.923859 275.611633,151.362259 273.885132,151.230072 
	C272.908630,151.051865 272.232483,151.083374 270.987732,151.062378 
	C269.791016,151.054214 269.162872,151.098587 267.968750,151.083389 
	C266.859802,151.076660 266.316803,151.129486 265.365479,151.146057 
	C259.460663,151.069138 259.856384,146.566925 258.961761,142.643738 
	C259.100952,141.886536 259.167908,141.582077 259.458679,140.858276 
	C261.303467,138.573074 263.564972,138.741592 265.673767,138.703781 
	C275.766693,138.522842 285.862183,138.514679 295.954590,138.707611 
	C298.360046,138.753571 301.062408,138.444916 302.594299,141.694977 
	C302.623901,142.506348 302.561096,142.830688 302.238708,143.577118 
	C301.979065,143.999191 302.004303,144.004593 302.002502,143.991791 
	C298.118805,146.703232 295.145142,151.026077 289.337952,150.862549 
z"/>
<path fill="#626165" opacity="1.000000" stroke="none" 
	d="
M276.805664,312.036804 
	C267.006378,312.041809 267.008118,312.041809 267.014587,302.512726 
	C267.018677,296.537933 267.072449,290.562347 266.989288,284.588745 
	C266.956573,282.239685 267.425568,280.879608 270.245605,280.904633 
	C272.862549,280.927917 273.765961,281.911469 273.731598,284.423309 
	C273.652130,290.230865 273.781647,296.041229 273.705933,301.848907 
	C273.670349,304.579010 274.324280,306.357117 277.546204,306.224213 
	C279.629944,306.138214 282.072876,305.714478 281.930328,309.229034 
	C281.789032,312.711182 279.319031,311.933472 276.805664,312.036804 
z"/>
<path fill="#5B1BDC" opacity="1.000000" stroke="none" 
	d="
M259.793457,142.749054 
	C261.040039,145.794174 262.383942,148.433044 264.748352,150.846924 
	C260.752655,158.055191 256.548187,165.000580 252.064819,172.017883 
	C250.966049,163.581802 248.461899,154.824265 255.673828,147.235840 
	C256.650421,146.413986 257.221771,145.742188 257.093597,144.370361 
	C257.365845,143.511230 257.636230,142.991760 258.092285,142.243713 
	C258.449615,141.912827 258.621246,141.810501 259.059082,141.846069 
	C259.421143,142.159241 259.516998,142.334564 259.793457,142.749054 
z"/>
<path fill="#764DF2" opacity="1.000000" stroke="none" 
	d="
M257.667725,232.689774 
	C259.123474,233.080200 260.201355,233.237869 261.511200,233.525391 
	C261.657654,233.945419 261.572144,234.235596 261.327820,234.869690 
	C259.728516,237.642593 258.287994,240.071609 256.598175,242.781372 
	C256.372223,243.239090 256.395538,243.416077 256.170105,243.692215 
	C255.921356,243.791351 255.961975,243.926682 255.894272,243.946884 
	C253.512573,244.067215 253.447266,248.601562 251.002686,247.105118 
	C248.775986,245.742050 249.522537,242.696304 249.846115,240.205780 
	C250.078888,238.414261 249.959076,236.576950 249.999664,234.314926 
	C252.083496,231.602173 254.572586,231.441071 257.667725,232.689774 
z"/>
<path fill="#5B1BDC" opacity="1.000000" stroke="none" 
	d="
M273.817627,151.154922 
	C274.986877,150.956894 276.388977,150.893433 278.118347,150.925446 
	C276.980560,151.110443 275.515503,151.199966 273.817627,151.154922 
z"/>
<path fill="#5B1BDC" opacity="1.000000" stroke="none" 
	d="
M255.714142,213.196625 
	C256.094482,213.020142 256.669647,212.959641 257.440521,212.979584 
	C257.060455,213.144241 256.484711,213.228424 255.714142,213.196625 
z"/>
<path fill="#5B1BDC" opacity="1.000000" stroke="none" 
	d="
M183.254990,134.839539 
	C183.423615,134.790924 183.373886,134.769211 183.367065,134.748871 
	C183.360245,134.728546 182.955353,134.606384 182.955353,134.606384 
	C182.955353,134.606384 183.086365,134.888168 183.254990,134.839539 
z"/>
<path fill="#5B1BDC" opacity="1.000000" stroke="none" 
	d="
M267.348450,151.119720 
	C267.402771,151.023834 267.502106,150.926956 267.548889,150.975006 
	C267.595642,151.023041 267.601074,151.255798 267.601074,151.255798 
	C267.601074,151.255798 267.294159,151.215591 267.348450,151.119720 
z"/>
<path fill="#6946D2" opacity="1.000000" stroke="none" 
	d="
M256.084839,243.740753 
	C255.906540,243.580643 255.968231,243.395416 256.227661,243.148895 
	C256.480377,243.297882 256.446838,243.507233 256.084839,243.740753 
z"/>
<path fill="#5B1BDC" opacity="1.000000" stroke="none" 
	d="
M261.143127,235.153748 
	C261.169067,235.213577 261.066711,235.262589 261.041138,235.282043 
	C261.015533,235.301498 261.117218,235.093933 261.143127,235.153748 
z"/>
<path fill="#5B1BDC" opacity="1.000000" stroke="none" 
	d="
M270.355652,151.096344 
	C270.419189,151.009857 270.483246,150.924927 270.514282,150.966339 
	C270.545349,151.007767 270.581604,151.225128 270.581604,151.225128 
	C270.581604,151.225128 270.292084,151.182846 270.355652,151.096344 
z"/>
<path fill="#5B1BDC" opacity="1.000000" stroke="none" 
	d="
M272.354492,213.116226 
	C272.411011,213.033783 272.451721,212.963425 272.474976,212.996246 
	C272.498199,213.029053 272.561676,213.219208 272.561676,213.219208 
	C272.561676,213.219208 272.298004,213.198669 272.354492,213.116226 
z"/>
<path fill="#5D1CDF" opacity="1.000000" stroke="none" 
	d="
M319.161621,132.807800 
	C319.029175,132.734039 318.980682,132.755508 318.996277,132.742096 
	C319.011871,132.728683 319.284637,132.529633 319.284637,132.529633 
	C319.284637,132.529633 319.294037,132.881546 319.161621,132.807800 
z"/>
<path fill="#5B19E1" opacity="1.000000" stroke="none" 
	d="
M288.881958,151.083786 
	C292.700470,147.795258 296.518646,145.032333 301.623901,143.938492 
	C299.529633,151.651535 294.699554,158.086227 290.847076,165.023727 
	C285.274780,175.058136 278.902802,184.675262 273.784393,194.925995 
	C269.992828,202.519379 264.316986,207.062134 256.367065,209.954132 
	C255.892792,208.142807 256.753418,206.437668 257.835602,205.017197 
	C266.376892,193.805786 270.438263,179.982391 279.163696,168.831284 
	C282.323059,164.793579 282.809631,158.871658 288.113220,156.088226 
	C288.926636,155.661331 288.583099,153.029861 288.881958,151.083786 
z"/>
<path fill="#5D1CDF" opacity="1.000000" stroke="none" 
	d="
M259.019897,142.212158 
	C258.674377,141.978455 258.473358,141.997665 258.375671,142.006409 
	C257.673615,140.298981 257.174103,138.536804 256.445099,136.875366 
	C254.339539,132.076874 254.980164,130.877655 260.210144,130.856247 
	C275.354675,130.794220 290.499695,130.840454 305.644501,130.845825 
	C307.974457,130.846649 310.306793,130.794235 312.633453,130.884460 
	C314.057343,130.939682 315.927032,130.551529 316.381927,132.487549 
	C316.844574,134.456726 314.852722,134.751770 313.466400,135.806366 
	C311.882446,140.435623 307.911011,141.734695 304.054871,143.721451 
	C303.748260,143.911255 303.360229,143.918900 303.166443,143.929382 
	C302.708496,143.761124 302.470459,143.552582 302.095520,143.141022 
	C301.554688,141.358353 300.352753,140.947891 298.919495,140.965805 
	C286.145081,141.125427 273.361908,140.410568 260.233704,141.564392 
	C259.703186,142.003967 259.534302,142.224915 259.019897,142.212158 
z"/>
<path fill="#8B50FC" opacity="1.000000" stroke="none" 
	d="
M304.101807,143.993927 
	C305.177704,139.598007 309.061340,138.200699 312.926025,136.229858 
	C315.207916,139.974396 312.149567,142.565628 310.318817,145.134247 
	C308.265076,148.015717 306.567383,143.827164 304.101807,143.993927 
z"/>
<path fill="#5D1CDF" opacity="1.000000" stroke="none" 
	d="
M256.873962,144.274017 
	C258.718719,145.357605 259.131775,146.449783 256.221252,146.979050 
	C256.160553,146.173294 256.406525,145.345322 256.873962,144.274017 
z"/>
<path fill="#5B19E1" opacity="1.000000" stroke="none" 
	d="
M301.905518,143.227402 
	C302.195099,143.149368 302.437714,143.354492 302.816528,143.761536 
	C302.808289,143.969711 302.643860,143.999573 302.229248,144.014313 
	C301.945526,143.828461 301.912018,143.657715 301.905518,143.227402 
z"/>
<path fill="#5B19E1" opacity="1.000000" stroke="none" 
	d="
M219.752808,162.753448 
	C222.572403,167.532745 225.115219,172.082367 227.738419,176.585190 
	C228.412903,177.742966 228.981216,178.878708 229.003296,180.612762 
	C230.380600,182.360184 230.901398,184.385559 232.779037,185.762482 
	C236.980331,194.129257 243.264008,200.916931 246.849152,209.686340 
	C245.629654,212.257874 248.005676,213.001953 248.894867,214.702637 
	C249.916214,216.151794 250.819855,217.292603 251.866150,218.714325 
	C251.891159,221.051041 253.338211,223.172134 251.416260,225.489426 
	C249.573990,226.700424 248.113754,226.610229 246.329468,225.312286 
	C245.615311,224.284363 245.269287,223.545837 244.893448,222.495911 
	C244.665329,219.717209 244.251450,217.378784 241.199280,216.248657 
	C239.392288,214.275177 238.386292,212.247940 237.914062,209.595398 
	C234.390686,201.946182 230.080063,195.131165 225.214523,188.245422 
	C224.643631,187.264816 224.329514,186.533386 223.963058,185.507278 
	C221.855499,182.958328 221.696411,179.600693 219.130997,177.273102 
	C217.718887,176.673676 217.136612,175.854187 216.971039,174.363846 
	C216.320099,170.971252 214.467056,168.360458 213.646317,165.391983 
	C212.832596,162.448929 213.263351,160.047470 217.630600,160.733612 
	C217.987183,160.969345 218.009979,160.992706 218.021088,161.004639 
	C218.522232,161.514404 219.012878,162.011581 219.752808,162.753448 
z"/>
<path fill="#5B19E1" opacity="1.000000" stroke="none" 
	d="
M204.776123,136.785858 
	C208.644547,142.905838 212.086426,148.927505 214.971405,155.633240 
	C212.400955,160.581955 210.691254,160.508698 206.222382,155.325806 
	C205.634796,154.556229 205.332474,154.088440 204.960876,153.347321 
	C204.941177,152.459930 204.799286,151.902939 204.174896,151.228912 
	C203.950241,151.035049 203.980423,150.996979 203.971985,151.016830 
	C203.335083,150.225113 203.111069,149.167816 202.135010,148.229599 
	C201.599380,147.572372 201.303574,147.107254 200.935303,146.373260 
	C200.119705,141.232452 197.243912,138.417450 192.200806,137.226974 
	C191.916367,137.035461 191.451248,137.010513 191.220322,136.979156 
	C191.273697,133.912125 193.524292,134.015533 195.696701,134.005447 
	C197.494308,133.997101 199.291992,134.002457 201.544647,134.002090 
	C202.851471,134.861343 203.715347,135.708237 204.776123,136.785858 
z"/>
<path fill="#5B1AE1" opacity="1.000000" stroke="none" 
	d="
M205.982635,155.385681 
	C208.733643,155.631500 211.083649,159.235886 214.711334,156.139221 
	C216.630508,156.985397 217.836914,158.260284 217.967743,160.626740 
	C215.272354,161.219498 215.153305,162.796631 215.462570,165.108551 
	C215.845612,167.972061 218.210815,170.367249 217.135437,173.758453 
	C212.811966,168.235794 208.779388,162.373734 205.982635,155.385681 
z"/>
<path fill="#5B1AE1" opacity="1.000000" stroke="none" 
	d="
M246.047501,225.360947 
	C247.357910,225.012894 248.754486,225.002899 250.905975,225.059204 
	C252.965683,226.553986 255.107635,226.280396 256.763184,227.742798 
	C258.708557,229.058334 259.149872,230.507645 258.169312,232.629730 
	C255.758545,234.081390 253.307159,234.066162 250.420914,233.900497 
	C249.424744,230.809219 247.295914,228.482971 246.047501,225.360947 
z"/>
<path fill="#5B1AE1" opacity="1.000000" stroke="none" 
	d="
M224.989456,188.359467 
	C225.831070,188.416855 227.173798,188.610123 227.504761,189.293442 
	C230.668610,195.825333 237.468124,200.409439 237.851212,208.843018 
	C234.584793,207.507538 233.577438,203.988297 231.808304,201.124176 
	C229.335236,197.120499 227.264206,192.868469 224.989456,188.359467 
z"/>
<path fill="#5B1AE1" opacity="1.000000" stroke="none" 
	d="
M192.122543,137.301056 
	C199.311462,137.264877 200.906464,138.722702 201.043106,145.823181 
	C198.286942,142.989792 195.693939,139.892273 192.122543,137.301056 
z"/>
<path fill="#5B1AE1" opacity="1.000000" stroke="none" 
	d="
M241.033234,216.364319 
	C246.552887,216.641373 247.043411,217.279938 245.046021,221.890411 
	C242.728149,220.962006 242.142258,218.680420 241.033234,216.364319 
z"/>
<path fill="#5B1AE1" opacity="1.000000" stroke="none" 
	d="
M218.943008,177.415283 
	C223.438797,177.543518 222.557129,181.711594 223.865784,184.822357 
	C220.842239,183.674728 220.044678,180.650314 218.943008,177.415283 
z"/>
<path fill="#5B1AE1" opacity="1.000000" stroke="none" 
	d="
M201.976608,148.341324 
	C203.119797,148.333878 203.804626,149.099426 203.940002,150.699844 
	C203.037354,150.471375 202.358429,149.709076 201.976608,148.341324 
z"/>
<path fill="#5B1AE1" opacity="1.000000" stroke="none" 
	d="
M204.007874,151.314377 
	C204.783112,151.259674 205.637192,151.468307 205.036514,152.869904 
	C204.616241,152.580551 204.340866,152.087128 204.007874,151.314377 
z"/>
<path fill="#5B1AE1" opacity="1.000000" stroke="none" 
	d="
M250.994568,224.994385 
	C251.090637,223.191803 250.737366,221.344116 251.803406,219.315094 
	C252.959259,220.446640 253.909714,221.898056 254.936646,223.671295 
	C254.804794,226.365402 253.278381,225.948120 251.384064,225.273193 
	C251.014923,225.012939 251.001801,225.001358 250.994568,224.994385 
z"/>
<path fill="#5B19E1" opacity="1.000000" stroke="none" 
	d="
M251.112747,225.360565 
	C252.155136,224.804993 253.295349,224.597076 254.724365,224.191162 
	C255.635483,225.108765 256.257812,226.224396 256.948242,227.657578 
	C254.831650,227.858322 252.341171,228.524612 251.112747,225.360565 
z"/>
<path fill="#5B1AE1" opacity="1.000000" stroke="none" 
	d="
M249.158981,214.773483 
	C247.018402,214.031494 243.798584,213.716660 246.711639,210.116425 
	C247.586182,211.604782 249.878250,212.342896 249.158981,214.773483 
z"/>
<path fill="#5B1AE1" opacity="1.000000" stroke="none" 
	d="
M232.936264,185.648224 
	C230.594879,185.584213 228.966232,184.445892 229.023544,181.357559 
	C231.404846,181.444748 232.274582,183.251389 232.936264,185.648224 
z"/>
<path fill="#5B1AE1" opacity="1.000000" stroke="none" 
	d="
M204.912079,136.681458 
	C203.606522,136.739594 202.560547,136.075043 202.079285,134.320343 
	C203.388489,134.256149 204.434921,134.921066 204.912079,136.681458 
z"/>
<path fill="#5B1AE1" opacity="1.000000" stroke="none" 
	d="
M219.902863,162.719238 
	C219.404968,162.527161 218.810272,162.053787 218.123901,161.298492 
	C218.623505,161.490387 219.214783,161.964172 219.902863,162.719238 
z"/>
<path fill="#151619" opacity="1.000000" stroke="none" 
	d="
M307.768127,299.419922 
	C305.295746,295.647675 308.316010,293.088684 309.153961,289.561859 
	C313.824921,298.328949 313.664825,299.461853 307.768127,299.419922 
z"/>
<path fill="#151619" opacity="1.000000" stroke="none" 
	d="
M233.918335,299.187195 
	C233.278320,295.730804 234.914124,293.051880 236.125183,289.499817 
	C238.157623,292.671448 239.738602,295.556763 239.108704,298.507843 
	C238.722321,300.318085 235.996140,299.598663 233.918335,299.187195 
z"/>
<path fill="#8750F3" opacity="1.000000" stroke="none" 
	d="
M258.890320,142.150085 
	C258.875183,141.951462 259.075989,141.924454 259.574402,141.840240 
	C259.893646,141.983612 259.915253,142.184204 259.955444,142.686523 
	C259.684814,142.766068 259.395569,142.543900 258.890320,142.150085 
z"/>
</svg>