<svg version="1.1" id="Layer_1" xmlns="http://www.w3.org/2000/svg" xmlns:xlink="http://www.w3.org/1999/xlink" x="0px" y="0px"
	 width="100%" viewBox="0 0 4799 1536" enable-background="new 0 0 4799 1536" xml:space="preserve">
<path fill="#000000" opacity="1.000000" stroke="none" 
	d="
M3352.000000,1538.000000 
	C2234.666748,1538.000000 1118.333740,1538.000000 2.000449,1538.000000 
	C2.000299,1026.000244 2.000299,514.000610 2.000150,2.000656 
	C1601.999390,2.000437 3201.998779,2.000437 4801.998535,2.000218 
	C4801.999023,513.999329 4801.999023,1025.998657 4801.999512,1537.999023 
	C4319.000000,1538.000000 3836.000000,1538.000000 3352.000000,1538.000000 
M748.584900,691.241211 
	C752.325317,692.693420 753.989258,690.323364 755.554260,687.560913 
	C759.789490,680.085815 764.087830,672.646484 768.366516,665.196045 
	C788.433044,630.253967 808.501526,595.313049 830.371155,560.382690 
	C872.070679,560.357483 913.770264,560.332336 955.448914,561.674988 
	C950.461548,570.266785 945.503845,578.875854 940.482117,587.447449 
	C909.741577,639.918213 879.072937,692.431274 848.212830,744.831604 
	C815.684509,800.064636 782.968933,855.187439 750.144165,910.681396 
	C748.763062,908.654419 747.346497,906.828369 746.196716,904.847473 
	C737.855530,890.477478 729.598816,876.058350 721.258057,861.688049 
	C688.915222,805.964600 656.533508,750.263672 624.201355,694.533997 
	C605.362976,662.063171 586.600159,629.548584 567.786316,597.063538 
	C555.796021,576.360474 543.776917,555.674133 531.766663,534.982666 
	C515.919189,507.680176 499.938660,480.453430 484.323944,453.018494 
	C481.100281,447.354492 477.236542,445.454163 470.769592,445.514435 
	C436.465302,445.834381 402.156403,445.650085 367.849182,445.693329 
	C365.214569,445.696655 362.580444,446.108398 358.535736,446.211792 
	C355.964203,446.539429 353.683563,447.439514 354.707489,450.564789 
	C355.524536,453.058563 356.969086,455.370850 358.298767,457.668976 
	C384.422180,502.818451 410.611359,547.929932 436.701447,593.098633 
	C468.266022,647.745117 499.744934,702.440979 531.272339,757.108887 
	C554.177734,796.826416 577.132263,836.515686 600.008240,876.250183 
	C620.730225,912.243103 641.328979,948.307190 662.067078,984.290833 
	C686.287170,1026.316406 710.592773,1068.292603 734.876953,1110.281128 
	C739.867920,1118.910522 744.785889,1127.587402 750.010132,1136.074707 
	C753.117004,1141.122314 755.672241,1141.030029 758.634583,1136.091919 
	C760.855286,1132.390015 762.880127,1128.564209 764.861755,1124.726318 
	C776.433716,1102.313843 788.110046,1079.953491 799.449646,1057.423828 
	C804.629089,1047.133179 809.118713,1036.495239 814.296326,1024.533569 
	C813.786438,1022.988464 813.517395,1021.306580 812.729309,1019.919495 
	C804.853210,1006.056274 796.946960,992.209351 788.940796,978.420837 
	C777.601257,958.891663 766.115417,939.447144 754.867798,919.865479 
	C753.806885,918.018494 750.459839,915.804810 755.919312,913.616638 
	C794.913391,913.634583 833.909363,913.460815 872.899841,913.845886 
	C879.977051,913.915771 883.385620,911.365295 886.757812,905.390686 
	C915.831116,853.881958 945.245850,802.565674 974.646423,751.242188 
	C998.753235,709.159912 1023.018250,667.168335 1047.143677,625.096741 
	C1079.049194,569.457703 1110.901123,513.787964 1142.707031,458.091980 
	C1144.131226,455.598083 1144.873535,452.714844 1146.072510,448.287170 
	C1142.443481,444.072784 1137.506958,445.754425 1133.151245,445.746887 
	C1065.309570,445.629303 997.467468,445.664703 929.625549,445.664734 
	C877.081299,445.664764 824.536926,445.614624 771.993103,445.763367 
	C767.958557,445.774780 763.928040,447.188263 758.742920,448.650696 
	C754.431946,456.117889 750.070068,463.556213 745.818787,471.057281 
	C726.687927,504.812164 707.697510,538.647461 688.370850,572.289734 
	C685.132629,577.926514 685.256409,582.399597 688.496460,587.922485 
	C700.737732,608.788391 712.493164,629.938660 724.622253,650.871338 
	C732.238831,664.016296 740.197388,676.963013 748.584900,691.241211 
M2187.715576,789.569641 
	C2188.469482,784.993896 2188.977539,780.361511 2190.016113,775.851257 
	C2198.724365,738.039246 2221.554199,713.692993 2259.368164,704.111511 
	C2292.625000,695.684692 2325.195801,699.771545 2357.283691,710.410950 
	C2360.918457,711.616211 2364.518799,712.926392 2368.851807,714.437927 
	C2374.669678,692.622864 2380.916992,672.198975 2384.711426,651.465576 
	C2365.044678,642.758423 2344.946045,638.229065 2314.736084,636.263489 
	C2271.687744,633.462524 2229.851807,637.735901 2190.796387,658.132019 
	C2160.944580,673.721680 2137.906494,696.052063 2123.546387,726.526855 
	C2102.828369,770.494446 2100.948486,816.393555 2114.300293,862.446838 
	C2127.758301,908.866516 2158.160156,940.608337 2204.042480,956.798523 
	C2233.513184,967.197632 2263.967529,969.551208 2295.067871,968.589111 
	C2317.445312,967.896851 2339.330566,964.741638 2361.062256,960.033447 
	C2372.624512,957.528503 2383.973633,954.038879 2395.141113,951.067627 
	C2395.141113,892.252258 2395.141113,834.765320 2395.141113,776.873047 
	C2353.485107,776.873047 2312.372314,776.873047 2270.889160,776.873047 
	C2270.889160,797.210754 2270.889160,816.996948 2270.889160,837.834351 
	C2287.556152,837.834351 2303.682861,837.834351 2319.764160,837.834351 
	C2319.764160,859.754150 2319.764160,880.614014 2319.764160,901.684143 
	C2301.421143,907.053162 2283.319824,907.517944 2265.234375,903.710999 
	C2230.405762,896.379517 2206.156250,876.641418 2193.933594,842.549622 
	C2187.948486,825.856079 2187.234863,808.789795 2187.715576,789.569641 
M3932.999756,965.671326 
	C3947.216797,965.671326 3961.434082,965.671326 3977.428955,965.671326 
	C3969.619629,947.842346 3958.987549,933.509338 3950.015137,918.274475 
	C3940.738037,902.521790 3931.189453,886.928711 3921.715820,871.292358 
	C3912.416504,855.944458 3903.055176,840.634094 3893.733887,825.299500 
	C3884.283691,809.752686 3874.848877,794.196289 3865.354492,778.556824 
	C3872.436523,769.238403 3878.965332,760.460693 3885.688965,751.834839 
	C3913.053711,716.726440 3940.464600,681.653748 3967.910400,646.608643 
	C3969.888916,644.082520 3971.243164,641.729431 3968.875244,638.329712 
	C3940.406250,638.329712 3911.765625,638.428406 3883.127197,638.231567 
	C3878.408447,638.199158 3875.880615,640.365784 3873.498779,643.905701 
	C3864.781006,656.863770 3855.795898,669.641968 3847.097656,682.612732 
	C3827.468994,711.883545 3807.961426,741.235657 3788.346436,770.515564 
	C3787.606201,771.620728 3786.257080,772.317993 3783.864502,774.310852 
	C3783.864502,728.026855 3783.864502,683.540955 3783.864502,638.804993 
	C3758.276855,638.804993 3733.448242,638.804993 3708.696045,638.804993 
	C3706.643066,652.102112 3707.279297,958.467468 3709.234863,965.034912 
	C3734.135498,965.034912 3758.967041,965.034912 3784.345215,965.034912 
	C3784.345215,961.099243 3784.344971,957.793030 3784.344971,954.486816 
	C3784.344971,925.499084 3784.266602,896.510864 3784.447754,867.524231 
	C3784.469238,864.050049 3784.905762,859.837097 3786.854004,857.249634 
	C3793.797607,848.027161 3801.477295,839.358765 3809.836914,829.330627 
	C3835.991211,875.416138 3861.641113,920.612915 3887.212646,965.671326 
	C3902.364746,965.671326 3916.682373,965.671326 3932.999756,965.671326 
M3560.253174,920.671021 
	C3531.071289,826.627136 3501.889404,732.583252 3472.756348,638.697632 
	C3439.073730,638.697632 3406.150146,638.697632 3372.922119,638.697632 
	C3339.747070,747.368225 3306.649902,855.783203 3273.264648,965.142822 
	C3301.097656,965.142822 3327.280273,965.142822 3354.101562,965.142822 
	C3361.703125,937.817139 3369.328613,910.405273 3377.013672,882.778809 
	C3406.649658,882.778809 3435.865479,882.778809 3465.374268,882.778809 
	C3473.767822,910.601135 3482.066650,938.110168 3490.167725,964.962585 
	C3518.286133,964.962585 3545.078369,964.962585 3572.701416,964.962585 
	C3570.424316,949.622559 3564.370117,936.239014 3560.253174,920.671021 
M2540.141113,897.032959 
	C2533.345459,919.479858 2526.550049,941.926758 2519.505371,965.196350 
	C2547.144775,965.196350 2573.332275,965.196350 2600.205811,965.196350 
	C2607.871338,937.769348 2615.527100,910.376892 2623.241455,882.774902 
	C2652.832520,882.774902 2681.712402,882.774902 2711.440186,882.774902 
	C2719.793945,910.228271 2728.161621,937.726746 2736.495605,965.115479 
	C2764.068848,965.115479 2790.913330,965.115479 2819.440430,965.115479 
	C2809.213623,927.772217 2797.350342,891.957092 2786.134277,855.950867 
	C2774.779541,819.500488 2763.539307,783.014587 2752.271729,746.537109 
	C2741.140381,710.499878 2730.037598,674.453857 2719.093994,638.968079 
	C2685.098389,638.968079 2652.249512,638.968079 2619.049561,638.968079 
	C2613.968994,655.617249 2609.033936,671.783691 2604.102783,687.951294 
	C2591.807617,728.262878 2579.547363,768.585144 2567.208740,808.883484 
	C2558.365723,837.765503 2549.418701,866.615723 2540.141113,897.032959 
M4098.676758,963.973755 
	C4101.812012,964.541626 4104.946289,965.600159 4108.082520,965.604919 
	C4171.733887,965.701477 4235.385254,965.681580 4299.036621,965.661377 
	C4301.609863,965.660522 4304.183105,965.427917 4307.071777,965.287964 
	C4307.071777,943.823608 4307.071777,923.045227 4307.071777,901.223206 
	C4263.015137,901.223206 4219.562988,901.223206 4176.138672,901.223206 
	C4176.138672,876.958496 4176.138672,853.745667 4176.138672,829.435059 
	C4215.678711,829.435059 4254.781250,829.435059 4293.606445,829.435059 
	C4293.606445,807.521606 4293.606445,786.718628 4293.606445,765.188354 
	C4254.007812,765.188354 4215.148926,765.188354 4176.340820,765.188354 
	C4176.340820,743.954529 4176.340820,723.478577 4176.340820,702.343628 
	C4187.256348,702.343628 4197.531250,702.343628 4207.806152,702.343628 
	C4218.136719,702.343628 4228.467773,702.343628 4238.798340,702.343628 
	C4249.462402,702.343628 4260.128418,702.475525 4270.790039,702.305603 
	C4280.942383,702.143799 4291.160645,703.055176 4301.125000,701.770203 
	C4301.125000,680.257812 4301.125000,659.744507 4301.125000,638.892334 
	C4233.446777,638.892334 4166.331543,638.892334 4098.355469,638.892334 
	C4098.355469,747.018188 4098.355469,854.576965 4098.676758,963.973755 
M1769.654663,818.999878 
	C1769.654663,867.571716 1769.654663,916.143555 1769.654663,965.037964 
	C1840.044312,965.037964 1909.476318,965.037964 1978.950317,965.037964 
	C1978.950317,943.631775 1978.950317,922.867249 1978.950317,901.662476 
	C1963.574707,901.662476 1948.923706,901.662415 1934.272705,901.662415 
	C1919.607544,901.662415 1904.942261,901.698853 1890.277222,901.652222 
	C1875.774780,901.606018 1861.258423,901.864807 1846.881836,901.477844 
	C1846.881836,876.870911 1846.881836,853.670288 1846.881836,829.479370 
	C1886.553345,829.479370 1925.700562,829.479370 1965.002197,829.479370 
	C1965.002197,807.692566 1965.002197,786.912048 1965.002197,765.683838 
	C1925.178711,765.606934 1886.020874,765.738403 1847.141602,765.610352 
	C1847.141602,743.701050 1847.141602,723.252258 1847.141602,702.092896 
	C1889.136108,702.092896 1930.339722,702.092896 1971.723633,702.092896 
	C1971.723633,680.603210 1971.723633,659.829651 1971.723633,638.810791 
	C1904.269775,638.810791 1837.438599,638.810791 1769.654663,638.810791 
	C1769.654663,698.525024 1769.654663,757.762390 1769.654663,818.999878 
M1546.308594,689.168091 
	C1527.681152,752.212646 1507.442505,814.801208 1493.022827,880.489380 
	C1481.807251,839.022095 1471.275513,799.049194 1460.150757,759.242004 
	C1448.910889,719.023010 1437.083008,678.968262 1425.514160,638.846680 
	C1397.298706,638.846680 1369.786255,638.846680 1342.339233,638.846680 
	C1341.391113,646.910645 1440.044434,950.676086 1445.924194,965.333740 
	C1475.124634,965.333740 1504.367310,965.333740 1534.388306,965.333740 
	C1552.666626,910.849609 1570.773193,856.382202 1589.220093,802.030273 
	C1607.604126,747.864014 1625.854370,693.657837 1644.221191,638.833618 
	C1615.768555,638.833618 1588.917114,638.833618 1561.257080,638.833618 
	C1556.437988,655.276855 1551.689209,671.479675 1546.308594,689.168091 
M3031.690918,876.978271 
	C3031.578369,798.056335 3031.466309,719.134399 3031.329346,640.212463 
	C3031.329102,639.955017 3030.978760,639.686584 3030.767334,639.444397 
	C3030.548584,639.194092 3030.300537,638.969604 3030.064209,638.734863 
	C3005.671387,637.124207 2961.869873,637.825684 2955.050293,639.845947 
	C2955.050293,748.337097 2955.050293,856.731445 2955.050293,964.982483 
	C3023.547363,964.982483 3091.300781,964.982483 3158.980469,964.982483 
	C3158.980469,943.157227 3158.980469,922.040161 3158.980469,899.914490 
	C3116.189209,899.914490 3074.098389,899.914490 3031.691162,899.914490 
	C3031.691162,892.251038 3031.691162,885.611572 3031.690918,876.978271 
z"/>
<path fill="#C3C3C4" opacity="1.000000" stroke="none" 
	d="
M754.106323,913.170410 
	C750.459839,915.804810 753.806885,918.018494 754.867798,919.865479 
	C766.115417,939.447144 777.601257,958.891663 788.940796,978.420837 
	C796.946960,992.209351 804.853210,1006.056274 812.729309,1019.919495 
	C813.517395,1021.306580 813.786438,1022.988464 813.180542,1025.253174 
	C803.090820,1026.210083 794.096008,1026.142944 785.148438,1026.761230 
	C773.920776,1027.537231 762.728943,1028.844727 751.527710,1029.982788 
	C745.848877,1030.559937 742.122009,1028.159424 739.415588,1023.181519 
	C735.130615,1015.300049 730.357422,1007.685730 725.972168,999.856750 
	C712.323303,975.489563 698.838928,951.030151 685.142578,926.689880 
	C668.676819,897.427979 652.032104,868.266907 635.516479,839.033020 
	C625.049744,820.506104 614.717834,801.902893 604.252991,783.374817 
	C588.393738,755.296021 572.450562,727.264709 556.583130,699.190552 
	C545.459778,679.510132 534.410278,659.787964 523.315308,640.091553 
	C510.751251,617.786926 498.183563,595.484375 485.598053,573.191833 
	C474.811554,554.085876 463.410767,535.294678 453.453979,515.766479 
	C448.773712,506.587036 442.055145,500.823883 433.692078,495.743042 
	C411.532776,482.280487 389.605011,468.437256 367.550201,454.801910 
	C364.144165,452.696136 360.349762,451.072266 359.946106,446.330322 
	C362.580444,446.108398 365.214569,445.696655 367.849182,445.693329 
	C402.156403,445.650085 436.465302,445.834381 470.769592,445.514435 
	C477.236542,445.454163 481.100281,447.354492 484.323944,453.018494 
	C499.938660,480.453430 515.919189,507.680176 531.766663,534.982666 
	C543.776917,555.674133 555.796021,576.360474 567.786316,597.063538 
	C586.600159,629.548584 605.362976,662.063171 624.201355,694.533997 
	C656.533508,750.263672 688.915222,805.964600 721.258057,861.688049 
	C729.598816,876.058350 737.855530,890.477478 746.196716,904.847473 
	C747.346497,906.828369 748.763062,908.654419 750.144165,910.681396 
	C782.968933,855.187439 815.684509,800.064636 848.212830,744.831604 
	C879.072937,692.431274 909.741577,639.918213 940.482117,587.447449 
	C945.503845,578.875854 950.461548,570.266785 956.194519,560.824097 
	C958.784546,559.234009 960.769653,558.729553 962.452148,557.720398 
	C986.658447,543.201782 1010.829468,528.624146 1034.995361,514.038330 
	C1040.762085,510.557678 1046.479126,506.994965 1052.218872,503.469971 
	C967.356567,501.973602 883.210999,501.971588 799.065430,501.998993 
	C798.101074,501.999298 797.128174,502.349304 796.178101,502.606018 
	C795.904602,502.679932 795.656311,502.967926 795.470764,503.213806 
	C795.273865,503.474670 795.165405,503.802277 794.756287,504.632568 
	C798.102600,510.326355 801.536743,516.352844 805.145813,522.272766 
	C812.905884,535.001526 820.755981,547.675293 828.569214,560.371643 
	C808.501526,595.313049 788.433044,630.253967 768.366516,665.196045 
	C764.087830,672.646484 759.789490,680.085815 755.554260,687.560913 
	C753.989258,690.323364 752.325317,692.693420 748.842041,690.065674 
	C750.037170,680.369324 751.670837,671.857727 751.783936,663.326050 
	C752.136414,636.731018 752.191162,610.123840 751.754883,583.531372 
	C751.611877,574.814331 753.595703,567.173462 758.083923,559.944397 
	C760.884460,555.433716 763.717896,550.941467 766.421509,546.372925 
	C773.858276,533.806030 781.240723,521.206970 788.630676,508.612427 
	C791.039307,504.507446 792.807251,500.617676 789.865540,495.673981 
	C781.720886,481.986572 774.062195,468.010498 765.975037,454.287872 
	C764.528564,451.833435 761.950928,450.045654 759.895630,447.950073 
	C763.928040,447.188263 767.958557,445.774780 771.993103,445.763367 
	C824.536926,445.614624 877.081299,445.664764 929.625549,445.664734 
	C997.467468,445.664703 1065.309570,445.629303 1133.151245,445.746887 
	C1137.506958,445.754425 1142.443481,444.072784 1145.259766,449.145660 
	C1141.417603,451.250336 1138.179077,452.144470 1135.391479,453.798370 
	C1113.106201,467.020752 1091.016113,480.575317 1068.624878,493.613983 
	C1059.971436,498.653046 1053.720581,505.548248 1048.981812,514.108643 
	C1047.532349,516.726990 1046.188965,519.404663 1044.714722,522.008667 
	C1028.511841,550.629822 1012.247498,579.216248 996.092285,607.864258 
	C983.035828,631.017212 970.174011,654.279968 957.101868,677.424011 
	C941.090881,705.771179 924.863342,733.996216 908.890442,762.364685 
	C892.425476,791.607117 876.158630,820.960999 859.794800,850.260315 
	C856.149658,856.786865 851.271484,861.606873 844.244446,865.004089 
	C818.181641,877.603760 792.350647,890.690308 766.590698,903.902161 
	C762.041382,906.235474 758.248535,910.043457 754.106323,913.170410 
z"/>
<path fill="#E0E0E0" opacity="1.000000" stroke="none" 
	d="
M2187.701172,790.509644 
	C2187.234863,808.789795 2187.948486,825.856079 2193.933594,842.549622 
	C2206.156250,876.641418 2230.405762,896.379517 2265.234375,903.710999 
	C2283.319824,907.517944 2301.421143,907.053162 2319.764160,901.684143 
	C2319.764160,880.614014 2319.764160,859.754150 2319.764160,837.834351 
	C2303.682861,837.834351 2287.556152,837.834351 2270.889160,837.834351 
	C2270.889160,816.996948 2270.889160,797.210754 2270.889160,776.873047 
	C2312.372314,776.873047 2353.485107,776.873047 2395.141113,776.873047 
	C2395.141113,834.765320 2395.141113,892.252258 2395.141113,951.067627 
	C2383.973633,954.038879 2372.624512,957.528503 2361.062256,960.033447 
	C2339.330566,964.741638 2317.445312,967.896851 2295.067871,968.589111 
	C2263.967529,969.551208 2233.513184,967.197632 2204.042480,956.798523 
	C2158.160156,940.608337 2127.758301,908.866516 2114.300293,862.446838 
	C2100.948486,816.393555 2102.828369,770.494446 2123.546387,726.526855 
	C2137.906494,696.052063 2160.944580,673.721680 2190.796387,658.132019 
	C2229.851807,637.735901 2271.687744,633.462524 2314.736084,636.263489 
	C2344.946045,638.229065 2365.044678,642.758423 2384.711426,651.465576 
	C2380.916992,672.198975 2374.669678,692.622864 2368.851807,714.437927 
	C2364.518799,712.926392 2360.918457,711.616211 2357.283691,710.410950 
	C2325.195801,699.771545 2292.625000,695.684692 2259.368164,704.111511 
	C2221.554199,713.692993 2198.724365,738.039246 2190.016113,775.851257 
	C2188.977539,780.361511 2188.469482,784.993896 2187.701172,790.509644 
z"/>
<path fill="#E0E0E0" opacity="1.000000" stroke="none" 
	d="
M3932.000000,965.671326 
	C3916.682373,965.671326 3902.364746,965.671326 3887.212646,965.671326 
	C3861.641113,920.612915 3835.991211,875.416138 3809.836914,829.330627 
	C3801.477295,839.358765 3793.797607,848.027161 3786.854004,857.249634 
	C3784.905762,859.837097 3784.469238,864.050049 3784.447754,867.524231 
	C3784.266602,896.510864 3784.344971,925.499084 3784.344971,954.486816 
	C3784.344971,957.793030 3784.345215,961.099243 3784.345215,965.034912 
	C3758.967041,965.034912 3734.135498,965.034912 3709.234863,965.034912 
	C3707.279297,958.467468 3706.643066,652.102112 3708.696045,638.804993 
	C3733.448242,638.804993 3758.276855,638.804993 3783.864502,638.804993 
	C3783.864502,683.540955 3783.864502,728.026855 3783.864502,774.310852 
	C3786.257080,772.317993 3787.606201,771.620728 3788.346436,770.515564 
	C3807.961426,741.235657 3827.468994,711.883545 3847.097656,682.612732 
	C3855.795898,669.641968 3864.781006,656.863770 3873.498779,643.905701 
	C3875.880615,640.365784 3878.408447,638.199158 3883.127197,638.231567 
	C3911.765625,638.428406 3940.406250,638.329712 3968.875244,638.329712 
	C3971.243164,641.729431 3969.888916,644.082520 3967.910400,646.608643 
	C3940.464600,681.653748 3913.053711,716.726440 3885.688965,751.834839 
	C3878.965332,760.460693 3872.436523,769.238403 3865.354492,778.556824 
	C3874.848877,794.196289 3884.283691,809.752686 3893.733887,825.299500 
	C3903.055176,840.634094 3912.416504,855.944458 3921.715820,871.292358 
	C3931.189453,886.928711 3940.738037,902.521790 3950.015137,918.274475 
	C3958.987549,933.509338 3969.619629,947.842346 3977.428955,965.671326 
	C3961.434082,965.671326 3947.216797,965.671326 3932.000000,965.671326 
z"/>
<path fill="#E0E0E0" opacity="1.000000" stroke="none" 
	d="
M3560.400879,921.462769 
	C3564.370117,936.239014 3570.424316,949.622559 3572.701416,964.962585 
	C3545.078369,964.962585 3518.286133,964.962585 3490.167725,964.962585 
	C3482.066650,938.110168 3473.767822,910.601135 3465.374268,882.778809 
	C3435.865479,882.778809 3406.649658,882.778809 3377.013672,882.778809 
	C3369.328613,910.405273 3361.703125,937.817139 3354.101562,965.142822 
	C3327.280273,965.142822 3301.097656,965.142822 3273.264648,965.142822 
	C3306.649902,855.783203 3339.747070,747.368225 3372.922119,638.697632 
	C3406.150146,638.697632 3439.073730,638.697632 3472.756348,638.697632 
	C3501.889404,732.583252 3531.071289,826.627136 3560.400879,921.462769 
M3392.426514,809.822266 
	C3391.392090,814.443176 3390.357422,819.064026 3389.311279,823.736572 
	C3411.193604,823.736572 3431.947266,823.736572 3453.274414,823.736572 
	C3442.197021,784.688171 3431.324219,746.361755 3420.210205,707.184387 
	C3410.983643,741.525574 3402.019043,774.891296 3392.426514,809.822266 
z"/>
<path fill="#E0E0E0" opacity="1.000000" stroke="none" 
	d="
M2540.329590,896.256592 
	C2549.418701,866.615723 2558.365723,837.765503 2567.208740,808.883484 
	C2579.547363,768.585144 2591.807617,728.262878 2604.102783,687.951294 
	C2609.033936,671.783691 2613.968994,655.617249 2619.049561,638.968079 
	C2652.249512,638.968079 2685.098389,638.968079 2719.093994,638.968079 
	C2730.037598,674.453857 2741.140381,710.499878 2752.271729,746.537109 
	C2763.539307,783.014587 2774.779541,819.500488 2786.134277,855.950867 
	C2797.350342,891.957092 2809.213623,927.772217 2819.440430,965.115479 
	C2790.913330,965.115479 2764.068848,965.115479 2736.495605,965.115479 
	C2728.161621,937.726746 2719.793945,910.228271 2711.440186,882.774902 
	C2681.712402,882.774902 2652.832520,882.774902 2623.241455,882.774902 
	C2615.527100,910.376892 2607.871338,937.769348 2600.205811,965.196350 
	C2573.332275,965.196350 2547.144775,965.196350 2519.505371,965.196350 
	C2526.550049,941.926758 2533.345459,919.479858 2540.329590,896.256592 
M2657.683838,740.584534 
	C2650.236328,768.194702 2642.788818,795.804871 2635.254150,823.738586 
	C2657.279541,823.738586 2677.990723,823.738586 2699.376221,823.738586 
	C2688.285400,784.520203 2677.405518,746.046875 2665.945068,705.521118 
	C2662.943359,717.934875 2660.405029,728.432373 2657.683838,740.584534 
z"/>
<path fill="#DFDFDF" opacity="1.000000" stroke="none" 
	d="
M4098.516113,963.054688 
	C4098.355469,854.576965 4098.355469,747.018188 4098.355469,638.892334 
	C4166.331543,638.892334 4233.446777,638.892334 4301.125000,638.892334 
	C4301.125000,659.744507 4301.125000,680.257812 4301.125000,701.770203 
	C4291.160645,703.055176 4280.942383,702.143799 4270.790039,702.305603 
	C4260.128418,702.475525 4249.462402,702.343628 4238.798340,702.343628 
	C4228.467773,702.343628 4218.136719,702.343628 4207.806152,702.343628 
	C4197.531250,702.343628 4187.256348,702.343628 4176.340820,702.343628 
	C4176.340820,723.478577 4176.340820,743.954529 4176.340820,765.188354 
	C4215.148926,765.188354 4254.007812,765.188354 4293.606445,765.188354 
	C4293.606445,786.718628 4293.606445,807.521606 4293.606445,829.435059 
	C4254.781250,829.435059 4215.678711,829.435059 4176.138672,829.435059 
	C4176.138672,853.745667 4176.138672,876.958496 4176.138672,901.223206 
	C4219.562988,901.223206 4263.015137,901.223206 4307.071777,901.223206 
	C4307.071777,923.045227 4307.071777,943.823608 4307.071777,965.287964 
	C4304.183105,965.427917 4301.609863,965.660522 4299.036621,965.661377 
	C4235.385254,965.681580 4171.733887,965.701477 4108.082520,965.604919 
	C4104.946289,965.600159 4101.812012,964.541626 4098.516113,963.054688 
z"/>
<path fill="#E0E0E0" opacity="1.000000" stroke="none" 
	d="
M1769.654663,817.999817 
	C1769.654663,757.762390 1769.654663,698.525024 1769.654663,638.810791 
	C1837.438599,638.810791 1904.269775,638.810791 1971.723633,638.810791 
	C1971.723633,659.829651 1971.723633,680.603210 1971.723633,702.092896 
	C1930.339722,702.092896 1889.136108,702.092896 1847.141602,702.092896 
	C1847.141602,723.252258 1847.141602,743.701050 1847.141602,765.610352 
	C1886.020874,765.738403 1925.178711,765.606934 1965.002197,765.683838 
	C1965.002197,786.912048 1965.002197,807.692566 1965.002197,829.479370 
	C1925.700562,829.479370 1886.553345,829.479370 1846.881836,829.479370 
	C1846.881836,853.670288 1846.881836,876.870911 1846.881836,901.477844 
	C1861.258423,901.864807 1875.774780,901.606018 1890.277222,901.652222 
	C1904.942261,901.698853 1919.607544,901.662415 1934.272705,901.662415 
	C1948.923706,901.662415 1963.574707,901.662476 1978.950317,901.662476 
	C1978.950317,922.867249 1978.950317,943.631775 1978.950317,965.037964 
	C1909.476318,965.037964 1840.044312,965.037964 1769.654663,965.037964 
	C1769.654663,916.143555 1769.654663,867.571716 1769.654663,817.999817 
z"/>
<path fill="#E0E0E0" opacity="1.000000" stroke="none" 
	d="
M1546.624512,688.425293 
	C1551.689209,671.479675 1556.437988,655.276855 1561.257080,638.833618 
	C1588.917114,638.833618 1615.768555,638.833618 1644.221191,638.833618 
	C1625.854370,693.657837 1607.604126,747.864014 1589.220093,802.030273 
	C1570.773193,856.382202 1552.666626,910.849609 1534.388306,965.333740 
	C1504.367310,965.333740 1475.124634,965.333740 1445.924194,965.333740 
	C1440.044434,950.676086 1341.391113,646.910645 1342.339233,638.846680 
	C1369.786255,638.846680 1397.298706,638.846680 1425.514160,638.846680 
	C1437.083008,678.968262 1448.910889,719.023010 1460.150757,759.242004 
	C1471.275513,799.049194 1481.807251,839.022095 1493.022827,880.489380 
	C1507.442505,814.801208 1527.681152,752.212646 1546.624512,688.425293 
z"/>
<path fill="#E0E0E0" opacity="1.000000" stroke="none" 
	d="
M359.240906,446.271057 
	C360.349762,451.072266 364.144165,452.696136 367.550201,454.801910 
	C389.605011,468.437256 411.532776,482.280487 433.692078,495.743042 
	C442.055145,500.823883 448.773712,506.587036 453.453979,515.766479 
	C463.410767,535.294678 474.811554,554.085876 485.598053,573.191833 
	C498.183563,595.484375 510.751251,617.786926 523.315308,640.091553 
	C534.410278,659.787964 545.459778,679.510132 556.583130,699.190552 
	C572.450562,727.264709 588.393738,755.296021 604.252991,783.374817 
	C614.717834,801.902893 625.049744,820.506104 635.516479,839.033020 
	C652.032104,868.266907 668.676819,897.427979 685.142578,926.689880 
	C698.838928,951.030151 712.323303,975.489563 725.972168,999.856750 
	C730.357422,1007.685730 735.130615,1015.300049 739.415588,1023.181519 
	C742.122009,1028.159424 745.848877,1030.559937 751.527710,1029.982788 
	C762.728943,1028.844727 773.920776,1027.537231 785.148438,1026.761230 
	C794.096008,1026.142944 803.090820,1026.210083 812.992981,1025.993896 
	C809.118713,1036.495239 804.629089,1047.133179 799.449646,1057.423828 
	C788.110046,1079.953491 776.433716,1102.313843 764.861755,1124.726318 
	C762.880127,1128.564209 760.855286,1132.390015 758.634583,1136.091919 
	C755.672241,1141.030029 753.117004,1141.122314 750.010132,1136.074707 
	C744.785889,1127.587402 739.867920,1118.910522 734.876953,1110.281128 
	C710.592773,1068.292603 686.287170,1026.316406 662.067078,984.290833 
	C641.328979,948.307190 620.730225,912.243103 600.008240,876.250183 
	C577.132263,836.515686 554.177734,796.826416 531.272339,757.108887 
	C499.744934,702.440979 468.266022,647.745117 436.701447,593.098633 
	C410.611359,547.929932 384.422180,502.818451 358.298767,457.668976 
	C356.969086,455.370850 355.524536,453.058563 354.707489,450.564789 
	C353.683563,447.439514 355.964203,446.539429 359.240906,446.271057 
z"/>
<path fill="#DEDEDE" opacity="1.000000" stroke="none" 
	d="
M3031.690918,877.975220 
	C3031.691162,885.611572 3031.691162,892.251038 3031.691162,899.914490 
	C3074.098389,899.914490 3116.189209,899.914490 3158.980469,899.914490 
	C3158.980469,922.040161 3158.980469,943.157227 3158.980469,964.982483 
	C3091.300781,964.982483 3023.547363,964.982483 2955.050293,964.982483 
	C2955.050293,856.731445 2955.050293,748.337097 2955.050293,639.845947 
	C2961.869873,637.825684 3005.671387,637.124207 3030.064697,638.734375 
	C3030.300537,638.969604 3030.548584,639.194092 3030.767334,639.444397 
	C3030.978760,639.686584 3031.329102,639.955017 3031.329346,640.212463 
	C3031.466309,719.134399 3031.578369,798.056335 3031.690918,877.975220 
z"/>
<path fill="#E1E1E1" opacity="1.000000" stroke="none" 
	d="
M755.012817,913.393555 
	C758.248535,910.043457 762.041382,906.235474 766.590698,903.902161 
	C792.350647,890.690308 818.181641,877.603760 844.244446,865.004089 
	C851.271484,861.606873 856.149658,856.786865 859.794800,850.260315 
	C876.158630,820.960999 892.425476,791.607117 908.890442,762.364685 
	C924.863342,733.996216 941.090881,705.771179 957.101868,677.424011 
	C970.174011,654.279968 983.035828,631.017212 996.092285,607.864258 
	C1012.247498,579.216248 1028.511841,550.629822 1044.714722,522.008667 
	C1046.188965,519.404663 1047.532349,516.726990 1048.981812,514.108643 
	C1053.720581,505.548248 1059.971436,498.653046 1068.624878,493.613983 
	C1091.016113,480.575317 1113.106201,467.020752 1135.391479,453.798370 
	C1138.179077,452.144470 1141.417603,451.250336 1145.190186,450.008545 
	C1144.873535,452.714844 1144.131226,455.598083 1142.707031,458.091980 
	C1110.901123,513.787964 1079.049194,569.457703 1047.143677,625.096741 
	C1023.018250,667.168335 998.753235,709.159912 974.646423,751.242188 
	C945.245850,802.565674 915.831116,853.881958 886.757812,905.390686 
	C883.385620,911.365295 879.977051,913.915771 872.899841,913.845886 
	C833.909363,913.460815 794.913391,913.634583 755.012817,913.393555 
z"/>
<path fill="#E2E2E2" opacity="1.000000" stroke="none" 
	d="
M829.470215,560.377197 
	C820.755981,547.675293 812.905884,535.001526 805.145813,522.272766 
	C801.536743,516.352844 798.102600,510.326355 794.756287,504.632568 
	C795.165405,503.802277 795.273865,503.474670 795.470764,503.213806 
	C795.656311,502.967926 795.904602,502.679932 796.178101,502.606018 
	C797.128174,502.349304 798.101074,501.999298 799.065430,501.998993 
	C883.210999,501.971588 967.356567,501.973602 1052.218872,503.469971 
	C1046.479126,506.994965 1040.762085,510.557678 1034.995361,514.038330 
	C1010.829468,528.624146 986.658447,543.201782 962.452148,557.720398 
	C960.769653,558.729553 958.784546,559.234009 956.204956,560.140137 
	C913.770264,560.332336 872.070679,560.357483 829.470215,560.377197 
z"/>
<path fill="#E0E0E0" opacity="1.000000" stroke="none" 
	d="
M759.319275,448.300385 
	C761.950928,450.045654 764.528564,451.833435 765.975037,454.287872 
	C774.062195,468.010498 781.720886,481.986572 789.865540,495.673981 
	C792.807251,500.617676 791.039307,504.507446 788.630676,508.612427 
	C781.240723,521.206970 773.858276,533.806030 766.421509,546.372925 
	C763.717896,550.941467 760.884460,555.433716 758.083923,559.944397 
	C753.595703,567.173462 751.611877,574.814331 751.754883,583.531372 
	C752.191162,610.123840 752.136414,636.731018 751.783936,663.326050 
	C751.670837,671.857727 750.037170,680.369324 748.550903,689.444336 
	C740.197388,676.963013 732.238831,664.016296 724.622253,650.871338 
	C712.493164,629.938660 700.737732,608.788391 688.496460,587.922485 
	C685.256409,582.399597 685.132629,577.926514 688.370850,572.289734 
	C707.697510,538.647461 726.687927,504.812164 745.818787,471.057281 
	C750.070068,463.556213 754.431946,456.117889 759.319275,448.300385 
z"/>
<path fill="#040404" opacity="1.000000" stroke="none" 
	d="
M3392.740479,809.039673 
	C3402.019043,774.891296 3410.983643,741.525574 3420.210205,707.184387 
	C3431.324219,746.361755 3442.197021,784.688171 3453.274414,823.736572 
	C3431.947266,823.736572 3411.193604,823.736572 3389.311279,823.736572 
	C3390.357422,819.064026 3391.392090,814.443176 3392.740479,809.039673 
z"/>
<path fill="#040404" opacity="1.000000" stroke="none" 
	d="
M2657.775391,739.757202 
	C2660.405029,728.432373 2662.943359,717.934875 2665.945068,705.521118 
	C2677.405518,746.046875 2688.285400,784.520203 2699.376221,823.738586 
	C2677.990723,823.738586 2657.279541,823.738586 2635.254150,823.738586 
	C2642.788818,795.804871 2650.236328,768.194702 2657.775391,739.757202 
z"/>
</svg>