<svg version="1.1" id="Layer_1" xmlns="http://www.w3.org/2000/svg" xmlns:xlink="http://www.w3.org/1999/xlink" x="0px" y="0px"
	 width="100%" viewBox="0 0 386 309" enable-background="new 0 0 386 309" xml:space="preserve">
<path fill="#000000" opacity="1.000000" stroke="none" 
	d="
M267.000000,310.000000 
	C178.000015,310.000000 89.500031,310.000000 1.000036,310.000000 
	C1.000024,207.000031 1.000024,104.000069 1.000012,1.000077 
	C129.666611,1.000051 258.333221,1.000051 386.999878,1.000026 
	C386.999908,103.999931 386.999908,206.999863 386.999939,309.999878 
	C347.166656,310.000000 307.333344,310.000000 267.000000,310.000000 
M200.227432,182.432388 
	C200.802948,181.311096 201.378448,180.189789 202.408981,178.898880 
	C202.066895,176.933334 202.163025,174.745468 201.299973,173.044220 
	C198.785477,168.087677 195.887421,163.325714 192.774353,157.844009 
	C196.375885,157.517960 198.961243,157.283905 202.523697,157.178207 
	C203.178711,157.143433 203.833740,157.108643 205.114151,157.311371 
	C208.004272,157.199234 210.894409,157.087097 214.540085,156.771698 
	C222.891983,142.478195 231.272446,128.201294 239.586823,113.886002 
	C246.383026,102.184654 253.100372,90.437515 260.375732,78.330437 
	C259.486328,77.473984 258.631439,75.923279 257.701752,75.877045 
	C252.752930,75.630928 247.785110,75.729271 242.824326,75.767838 
	C226.793732,75.892471 210.763321,76.043068 194.032928,76.379494 
	C190.042465,83.050400 185.953720,89.666229 182.154648,96.444412 
	C181.492523,97.625732 181.512344,99.767570 182.140335,100.992493 
	C184.709106,106.002884 187.594452,110.854645 190.500061,115.682465 
	C190.763885,116.120842 192.004730,115.971191 193.348145,115.941399 
	C196.615891,110.429169 200.108246,105.033852 203.062149,99.358269 
	C204.679504,96.250648 206.681000,95.140129 210.061386,95.271980 
	C214.152557,95.431557 218.262802,95.102074 223.330353,95.127945 
	C223.978882,95.098000 224.627396,95.068054 225.597961,95.809540 
	C225.214478,97.347435 225.130722,99.049118 224.395340,100.394691 
	C221.302979,106.053085 217.976410,111.582802 214.808105,117.200516 
	C207.672363,129.852905 200.579712,142.529617 193.250717,155.289078 
	C193.250717,155.289078 193.235321,155.526199 192.421295,155.486649 
	C191.531006,154.596176 190.408234,153.842987 189.788239,152.792938 
	C185.825775,146.081848 181.987350,139.297714 178.083023,132.552139 
	C167.780945,114.752983 157.498886,96.941986 147.091995,79.204262 
	C146.286621,77.831573 144.597046,76.104362 143.269989,76.062057 
	C137.491516,75.877838 131.695114,76.256264 125.414139,76.181221 
	C125.237518,76.131294 125.060890,76.081367 124.948784,76.042992 
	C124.948784,76.042992 125.126915,75.989983 124.463264,76.164749 
	C124.837746,77.740181 124.865982,79.513657 125.637299,80.862099 
	C145.434799,115.472603 165.304474,150.041824 185.179260,184.608109 
	C187.299301,188.295303 189.527802,191.920135 192.327591,196.616577 
	C194.166321,193.092529 195.501282,190.534012 197.317917,187.464005 
	C197.499344,187.038086 197.680771,186.612183 198.235123,185.804382 
	C198.717361,184.851501 199.199600,183.898605 200.227432,182.432388 
M121.596260,236.432938 
	C121.434059,237.583267 121.230965,238.729553 121.116508,239.884628 
	C120.516457,245.940216 122.769836,250.817764 127.946747,253.841125 
	C133.137909,256.872803 138.921799,257.082428 144.122864,254.059738 
	C146.247971,252.824692 148.123367,249.995865 148.705704,247.556335 
	C149.485367,244.290192 148.898651,240.697861 148.898651,237.415665 
	C144.722229,237.415665 141.015182,237.415665 136.970871,237.415665 
	C137.114655,239.318817 137.222153,240.741653 137.329651,242.164505 
	C137.704880,241.910324 138.080109,241.656128 138.455338,241.401947 
	C139.892258,242.898026 142.524750,244.391815 142.527603,245.890625 
	C142.534409,249.472794 139.370987,250.050888 136.334641,249.974014 
	C131.342957,249.847595 128.059235,246.485611 127.897560,241.389191 
	C127.719986,235.791260 131.183029,231.375519 136.538574,231.140732 
	C139.741211,231.000336 142.985382,231.807556 146.273254,232.196198 
	C147.874237,228.100815 146.352341,226.052704 142.125961,225.269562 
	C132.852798,223.551239 125.565613,227.208328 121.596260,236.432938 
M287.073761,249.855728 
	C287.782776,247.698380 288.491760,245.541016 289.200775,243.383667 
	C289.759430,243.377060 290.318054,243.370453 290.876709,243.363846 
	C292.382996,246.042480 294.234039,248.589722 295.316315,251.429932 
	C297.021881,255.905991 299.870239,256.909058 304.589142,255.355621 
	C302.259338,250.884232 300.241730,246.529144 297.786865,242.436325 
	C295.328644,238.337997 295.162659,234.893112 298.884705,231.417725 
	C300.585175,229.829941 301.702484,227.617599 303.241302,225.469284 
	C298.902893,224.410858 296.058228,225.032547 293.979828,228.487854 
	C292.363312,231.175293 290.218536,233.544998 288.308533,236.055908 
	C287.965424,235.845505 287.622284,235.635101 287.279175,235.424698 
	C287.130951,232.042206 286.982697,228.659714 286.821625,224.984207 
	C284.688812,225.098083 283.102692,225.182770 281.343567,225.276703 
	C281.343567,235.535812 281.343567,245.431396 281.343567,255.560364 
	C283.353455,255.560364 285.035889,255.560364 287.060944,255.560364 
	C287.060944,253.677719 287.060944,252.198135 287.073761,249.855728 
M260.576355,243.772583 
	C258.911987,239.252823 256.933014,234.818756 255.672012,230.189133 
	C254.418304,225.586349 252.085495,223.820694 247.259460,225.503235 
	C243.736923,235.302216 240.158981,245.255402 236.515488,255.390900 
	C240.582993,256.723297 243.443268,256.466705 244.247314,251.907410 
	C244.819992,248.660217 247.282776,248.783127 249.601608,249.060379 
	C252.107086,249.359955 255.638885,247.459473 256.552795,251.733276 
	C257.574402,256.510986 260.545410,256.673401 264.845734,255.268021 
	C263.468781,251.559494 262.158569,248.030701 260.576355,243.772583 
M187.380768,243.015808 
	C185.519379,238.041138 183.848282,232.981003 181.676529,228.145721 
	C181.053711,226.759064 178.996109,225.234406 177.573868,225.212143 
	C176.187592,225.190430 174.119904,226.710144 173.491623,228.077148 
	C171.557404,232.285599 170.137405,236.733627 168.576447,241.109543 
	C166.882782,245.857574 165.255249,250.629181 163.602509,255.380005 
	C168.158005,256.924164 170.480042,255.829910 171.386047,251.547577 
	C172.201263,247.694321 175.639389,248.950150 177.982437,249.155914 
	C179.896347,249.324005 182.936310,250.362244 183.331085,251.664978 
	C184.724747,256.263916 187.464508,256.646179 191.738831,255.456436 
	C190.354630,251.484451 189.006638,247.616364 187.380768,243.015808 
M337.784668,255.845901 
	C338.371094,254.194336 338.957520,252.542770 339.196228,251.870529 
	C335.664124,247.552643 328.616760,254.416229 327.642700,246.391388 
	C326.804993,239.489639 333.156525,243.395004 335.749390,241.362427 
	C335.749390,239.851868 335.749390,238.301712 335.749390,236.522827 
	C333.741211,236.428360 331.993622,236.676163 330.505188,236.166779 
	C329.408051,235.791321 328.649353,234.427017 327.739838,233.503326 
	C328.687469,232.621521 329.504395,231.450775 330.622223,230.945282 
	C331.594330,230.505661 332.913940,230.723312 334.067017,230.814484 
	C338.758118,231.185287 339.514160,229.064301 337.923248,225.247314 
	C332.422607,225.247314 327.165619,225.247314 321.629761,225.247314 
	C321.629761,235.536774 321.629761,245.539352 321.629761,255.962219 
	C327.005493,255.962219 331.962311,255.962219 337.784668,255.845901 
M69.254158,226.392105 
	C65.384766,223.821579 63.402454,224.283340 62.097687,228.255234 
	C60.422623,233.354324 58.904003,238.504822 57.317986,243.633163 
	C56.943630,243.594498 56.569275,243.555817 56.194920,243.517136 
	C54.087372,237.440140 51.979824,231.363129 49.861061,225.253784 
	C47.731758,225.253784 45.808685,225.253784 43.221302,225.253784 
	C46.707832,235.228271 49.962307,244.777115 53.482643,254.226913 
	C53.819916,255.132263 55.864525,255.952423 57.024055,255.841904 
	C58.128815,255.736572 59.680386,254.565918 60.059975,253.512207 
	C63.211571,244.763351 66.136909,235.932968 69.254158,226.392105 
M103.700844,225.722961 
	C98.335724,225.390625 92.970604,225.058304 87.319122,224.708237 
	C87.319122,235.556213 87.319122,245.556625 87.319122,255.994003 
	C92.398552,255.994003 97.037926,256.169678 101.645149,255.862762 
	C102.713783,255.791580 103.672768,254.074341 104.682198,253.114502 
	C103.676552,252.153107 102.770912,250.532608 101.645302,250.361801 
	C98.958710,249.954163 96.168358,250.230316 93.549942,250.230316 
	C92.600830,242.998413 92.600830,242.998413 101.811378,241.355011 
	C101.728455,239.870667 101.643158,238.343811 101.528961,236.299789 
	C99.247826,236.299789 97.356346,236.632965 95.679146,236.177368 
	C94.638977,235.894806 93.226326,234.390259 93.259064,233.480194 
	C93.291840,232.569061 94.776764,231.357330 95.877647,230.934097 
	C97.039894,230.487305 98.519958,230.665863 99.826782,230.835770 
	C103.192398,231.273376 104.417786,229.798126 103.700844,225.722961 
M214.709488,240.465698 
	C214.709488,235.410431 214.709488,230.355164 214.709488,225.297821 
	C212.033157,225.297821 210.290833,225.297821 208.439972,225.297821 
	C208.439972,235.609665 208.439972,245.599319 208.439972,255.548370 
	C223.178787,256.706543 224.250153,256.312378 222.276367,250.677536 
	C221.760834,250.554031 221.107986,250.203873 220.515045,250.286041 
	C215.457062,250.987030 214.048859,248.444412 214.693588,243.934692 
	C214.809738,243.122299 214.710068,242.279022 214.709488,240.465698 
z"/>
<path fill="#6946D2" opacity="1.000000" stroke="none" 
	d="
M196.836243,187.975494 
	C195.501282,190.534012 194.166321,193.092529 192.327591,196.616577 
	C189.527802,191.920135 187.299301,188.295303 185.179260,184.608109 
	C165.304474,150.041824 145.434799,115.472603 125.637299,80.862099 
	C124.865982,79.513657 124.837746,77.740181 124.755547,76.090012 
	C125.047829,76.015274 124.884254,76.031433 124.884254,76.031433 
	C125.060890,76.081367 125.237518,76.131294 125.793083,76.596939 
	C128.111526,78.324097 130.051010,79.635529 132.221161,80.978546 
	C132.451813,81.010124 132.916458,81.035309 133.122879,81.301315 
	C136.540970,85.056648 139.752640,88.545975 142.975037,92.015503 
	C142.985764,91.995705 142.952148,92.031982 143.017456,92.338287 
	C143.709717,93.441872 144.336639,94.239143 144.972183,95.016785 
	C144.980789,94.997139 144.950500,95.034904 145.007965,95.314316 
	C145.340958,96.087128 145.616486,96.580536 145.961136,97.347305 
	C146.332550,98.088409 146.634842,98.556152 146.982544,99.385605 
	C150.665634,105.845245 154.303360,111.943192 157.971466,118.363983 
	C158.618378,119.476974 159.234863,120.267128 159.939240,121.396729 
	C161.001221,123.502937 161.975327,125.269691 163.048355,127.342819 
	C164.084183,129.098099 165.021103,130.546982 165.989532,132.359161 
	C170.321625,139.869797 174.622223,147.017136 178.994797,154.503906 
	C180.064941,156.895584 181.063095,158.947815 182.125183,161.331635 
	C183.422867,163.175018 184.656616,164.686859 185.914871,166.508698 
	C186.280014,167.553406 186.620636,168.288101 187.047333,169.360901 
	C188.423141,172.422440 189.712891,175.145889 190.999420,178.314484 
	C190.996201,183.008179 190.996201,187.256699 190.996201,191.505234 
	C191.511688,191.568008 192.027191,191.630798 192.542679,191.693573 
	C193.973877,190.454224 195.405060,189.214859 196.836243,187.975494 
z"/>
<path fill="#8750F4" opacity="1.000000" stroke="none" 
	d="
M259.852661,78.710670 
	C253.100372,90.437515 246.383026,102.184654 239.586823,113.886002 
	C231.272446,128.201294 222.891983,142.478195 213.823181,156.806122 
	C210.233780,156.918320 207.361267,156.996094 204.488754,157.073853 
	C203.833740,157.108643 203.178711,157.143433 201.670593,157.029083 
	C198.290100,156.428711 195.762711,155.977463 193.235321,155.526199 
	C193.235321,155.526199 193.250717,155.289078 193.680389,155.268127 
	C194.740311,155.130371 195.370560,155.013550 196.327850,154.803345 
	C202.350098,151.235031 209.010391,149.451859 212.632614,142.735718 
	C219.723328,129.588455 227.558960,116.845055 234.920807,103.840828 
	C237.841248,98.682053 240.321503,93.274086 243.001907,87.990601 
	C243.001648,88.001633 242.979675,88.000130 243.316406,88.032120 
	C243.878525,88.058067 244.103928,88.052025 244.656555,88.082100 
	C247.110931,88.515991 250.480789,89.924789 251.133255,89.122795 
	C253.125763,86.673698 256.132904,84.011497 254.444672,79.833969 
	C255.534225,78.900284 256.415222,78.169144 257.564697,77.417099 
	C258.506348,77.834358 259.179504,78.272507 259.852661,78.710670 
z"/>
<path fill="#636367" opacity="1.000000" stroke="none" 
	d="
M121.730423,236.051086 
	C125.565613,227.208328 132.852798,223.551239 142.125961,225.269562 
	C146.352341,226.052704 147.874237,228.100815 146.273254,232.196198 
	C142.985382,231.807556 139.741211,231.000336 136.538574,231.140732 
	C131.183029,231.375519 127.719986,235.791260 127.897560,241.389191 
	C128.059235,246.485611 131.342957,249.847595 136.334641,249.974014 
	C139.370987,250.050888 142.534409,249.472794 142.527603,245.890625 
	C142.524750,244.391815 139.892258,242.898026 138.455338,241.401947 
	C138.080109,241.656128 137.704880,241.910324 137.329651,242.164505 
	C137.222153,240.741653 137.114655,239.318817 136.970871,237.415665 
	C141.015182,237.415665 144.722229,237.415665 148.898651,237.415665 
	C148.898651,240.697861 149.485367,244.290192 148.705704,247.556335 
	C148.123367,249.995865 146.247971,252.824692 144.122864,254.059738 
	C138.921799,257.082428 133.137909,256.872803 127.946747,253.841125 
	C122.769836,250.817764 120.516457,245.940216 121.116508,239.884628 
	C121.230965,238.729553 121.434059,237.583267 121.730423,236.051086 
z"/>
<path fill="#656469" opacity="1.000000" stroke="none" 
	d="
M287.067352,250.287140 
	C287.060944,252.198135 287.060944,253.677719 287.060944,255.560364 
	C285.035889,255.560364 283.353455,255.560364 281.343567,255.560364 
	C281.343567,245.431396 281.343567,235.535812 281.343567,225.276703 
	C283.102692,225.182770 284.688812,225.098083 286.821625,224.984207 
	C286.982697,228.659714 287.130951,232.042206 287.279175,235.424698 
	C287.622284,235.635101 287.965424,235.845505 288.308533,236.055908 
	C290.218536,233.544998 292.363312,231.175293 293.979828,228.487854 
	C296.058228,225.032547 298.902893,224.410858 303.241302,225.469284 
	C301.702484,227.617599 300.585175,229.829941 298.884705,231.417725 
	C295.162659,234.893112 295.328644,238.337997 297.786865,242.436325 
	C300.241730,246.529144 302.259338,250.884232 304.589142,255.355621 
	C299.870239,256.909058 297.021881,255.905991 295.316315,251.429932 
	C294.234039,248.589722 292.382996,246.042480 290.876709,243.363846 
	C290.318054,243.370453 289.759430,243.377060 289.200775,243.383667 
	C288.491760,245.541016 287.782776,247.698380 287.067352,250.287140 
z"/>
<path fill="#656469" opacity="1.000000" stroke="none" 
	d="
M260.712341,244.137238 
	C262.158569,248.030701 263.468781,251.559494 264.845734,255.268021 
	C260.545410,256.673401 257.574402,256.510986 256.552795,251.733276 
	C255.638885,247.459473 252.107086,249.359955 249.601608,249.060379 
	C247.282776,248.783127 244.819992,248.660217 244.247314,251.907410 
	C243.443268,256.466705 240.582993,256.723297 236.515488,255.390900 
	C240.158981,245.255402 243.736923,235.302216 247.259460,225.503235 
	C252.085495,223.820694 254.418304,225.586349 255.672012,230.189133 
	C256.933014,234.818756 258.911987,239.252823 260.712341,244.137238 
M250.575180,243.551453 
	C254.182159,242.562592 253.985779,239.285690 249.776703,234.008545 
	C249.042618,236.400360 248.122238,238.552094 247.834244,240.785400 
	C247.729889,241.594543 249.138184,242.598724 250.575180,243.551453 
z"/>
<path fill="#646468" opacity="1.000000" stroke="none" 
	d="
M187.519714,243.382034 
	C189.006638,247.616364 190.354630,251.484451 191.738831,255.456436 
	C187.464508,256.646179 184.724747,256.263916 183.331085,251.664978 
	C182.936310,250.362244 179.896347,249.324005 177.982437,249.155914 
	C175.639389,248.950150 172.201263,247.694321 171.386047,251.547577 
	C170.480042,255.829910 168.158005,256.924164 163.602509,255.380005 
	C165.255249,250.629181 166.882782,245.857574 168.576447,241.109543 
	C170.137405,236.733627 171.557404,232.285599 173.491623,228.077148 
	C174.119904,226.710144 176.187592,225.190430 177.573868,225.212143 
	C178.996109,225.234406 181.053711,226.759064 181.676529,228.145721 
	C183.848282,232.981003 185.519379,238.041138 187.519714,243.382034 
M179.835953,239.496445 
	C179.153320,237.704971 178.470673,235.913513 177.239090,232.681427 
	C175.933487,237.009735 175.046967,239.948669 173.759842,244.215729 
	C176.737488,242.426483 181.094238,246.147202 179.835953,239.496445 
z"/>
<path fill="#626165" opacity="1.000000" stroke="none" 
	d="
M337.351898,255.904053 
	C331.962311,255.962219 327.005493,255.962219 321.629761,255.962219 
	C321.629761,245.539352 321.629761,235.536774 321.629761,225.247314 
	C327.165619,225.247314 332.422607,225.247314 337.923248,225.247314 
	C339.514160,229.064301 338.758118,231.185287 334.067017,230.814484 
	C332.913940,230.723312 331.594330,230.505661 330.622223,230.945282 
	C329.504395,231.450775 328.687469,232.621521 327.739838,233.503326 
	C328.649353,234.427017 329.408051,235.791321 330.505188,236.166779 
	C331.993622,236.676163 333.741211,236.428360 335.749390,236.522827 
	C335.749390,238.301712 335.749390,239.851868 335.749390,241.362427 
	C333.156525,243.395004 326.804993,239.489639 327.642700,246.391388 
	C328.616760,254.416229 335.664124,247.552643 339.196228,251.870529 
	C338.957520,252.542770 338.371094,254.194336 337.351898,255.904053 
z"/>
<path fill="#626267" opacity="1.000000" stroke="none" 
	d="
M69.192398,226.759674 
	C66.136909,235.932968 63.211571,244.763351 60.059975,253.512207 
	C59.680386,254.565918 58.128815,255.736572 57.024055,255.841904 
	C55.864525,255.952423 53.819916,255.132263 53.482643,254.226913 
	C49.962307,244.777115 46.707832,235.228271 43.221302,225.253784 
	C45.808685,225.253784 47.731758,225.253784 49.861061,225.253784 
	C51.979824,231.363129 54.087372,237.440140 56.194920,243.517136 
	C56.569275,243.555817 56.943630,243.594498 57.317986,243.633163 
	C58.904003,238.504822 60.422623,233.354324 62.097687,228.255234 
	C63.402454,224.283340 65.384766,223.821579 69.192398,226.759674 
z"/>
<path fill="#646468" opacity="1.000000" stroke="none" 
	d="
M103.812683,226.155899 
	C104.417786,229.798126 103.192398,231.273376 99.826782,230.835770 
	C98.519958,230.665863 97.039894,230.487305 95.877647,230.934097 
	C94.776764,231.357330 93.291840,232.569061 93.259064,233.480194 
	C93.226326,234.390259 94.638977,235.894806 95.679146,236.177368 
	C97.356346,236.632965 99.247826,236.299789 101.528961,236.299789 
	C101.643158,238.343811 101.728455,239.870667 101.811378,241.355011 
	C92.600830,242.998413 92.600830,242.998413 93.549942,250.230316 
	C96.168358,250.230316 98.958710,249.954163 101.645302,250.361801 
	C102.770912,250.532608 103.676552,252.153107 104.682205,253.114502 
	C103.672768,254.074341 102.713783,255.791580 101.645149,255.862762 
	C97.037926,256.169678 92.398552,255.994003 87.319122,255.994003 
	C87.319122,245.556625 87.319122,235.556213 87.319122,224.708237 
	C92.970604,225.058304 98.335724,225.390625 103.812683,226.155899 
z"/>
<path fill="#5A1ADC" opacity="1.000000" stroke="none" 
	d="
M192.828308,155.506424 
	C195.762711,155.977463 198.290100,156.428711 201.182037,156.964905 
	C198.961243,157.283905 196.375885,157.517960 192.774353,157.844009 
	C195.887421,163.325714 198.785477,168.087677 201.299973,173.044220 
	C202.163025,174.745468 202.066895,176.933334 202.113312,178.707809 
	C200.893234,177.985291 199.968826,177.453827 199.164917,176.642334 
	C199.193146,175.238556 199.100876,174.114822 198.863586,172.696838 
	C197.817078,170.929916 196.915619,169.457245 195.936035,167.664154 
	C194.907913,165.894287 193.957916,164.444855 192.865326,162.714447 
	C191.818771,161.292709 190.914810,160.151947 190.158020,158.778290 
	C189.543976,157.361343 188.782761,156.177292 187.943634,154.642273 
	C182.913986,145.522461 177.962250,136.753601 172.927887,127.668648 
	C171.902679,126.564644 170.960068,125.776733 170.006577,124.606918 
	C166.336594,117.805626 162.677505,111.386246 158.990051,104.624794 
	C157.978241,102.852570 156.994781,101.422417 155.970459,99.633476 
	C152.616302,93.183167 149.303024,87.091652 145.912384,80.681419 
	C144.889938,79.575859 143.944855,78.789009 142.544739,78.001862 
	C140.292084,78.002335 138.381409,77.620766 136.728104,78.109650 
	C135.018707,78.615112 133.559280,79.965927 131.990509,80.946960 
	C130.051010,79.635529 128.111526,78.324097 126.038620,76.721481 
	C131.695114,76.256264 137.491516,75.877838 143.269989,76.062057 
	C144.597046,76.104362 146.286621,77.831573 147.091995,79.204262 
	C157.498886,96.941986 167.780945,114.752983 178.083023,132.552139 
	C181.987350,139.297714 185.825775,146.081848 189.788239,152.792938 
	C190.408234,153.842987 191.531006,154.596176 192.828308,155.506424 
z"/>
<path fill="#864FF2" opacity="1.000000" stroke="none" 
	d="
M192.791870,116.094612 
	C192.004730,115.971191 190.763885,116.120842 190.500061,115.682465 
	C187.594452,110.854645 184.709106,106.002884 182.140335,100.992493 
	C181.512344,99.767570 181.492523,97.625732 182.154648,96.444412 
	C185.953720,89.666229 190.042465,83.050400 194.667969,76.569229 
	C195.517502,76.923164 195.732010,77.087379 196.019211,77.577194 
	C197.723587,80.302979 199.355270,82.703140 200.989136,85.420097 
	C200.983124,86.159187 200.974945,86.581490 200.609131,87.014519 
	C199.659134,87.272903 198.889526,87.360680 198.500687,87.791855 
	C191.019043,96.088242 190.721588,105.857155 192.791870,116.094612 
z"/>
<path fill="#8B4FFB" opacity="1.000000" stroke="none" 
	d="
M200.966766,87.003784 
	C200.974945,86.581490 200.983124,86.159187 201.456879,85.363739 
	C213.912933,84.972328 225.904449,84.874161 237.892761,85.027061 
	C239.576523,85.048531 241.244598,86.299133 242.897797,87.237877 
	C242.910339,87.663345 242.945007,87.831741 242.979675,88.000130 
	C242.979675,88.000130 243.001648,88.001633 242.624786,87.950668 
	C238.158768,90.182762 234.069580,92.465813 229.581329,94.780540 
	C227.880142,94.887512 226.578033,94.962814 225.275925,95.038116 
	C224.627396,95.068054 223.978882,95.098000 222.458313,94.968002 
	C218.611710,94.781746 215.585556,94.391235 212.673126,94.803688 
	C206.282883,95.708656 202.643936,92.942039 200.966766,87.003784 
z"/>
<path fill="#626165" opacity="1.000000" stroke="none" 
	d="
M214.709763,240.957855 
	C214.710068,242.279022 214.809738,243.122299 214.693588,243.934692 
	C214.048859,248.444412 215.457062,250.987030 220.515045,250.286041 
	C221.107986,250.203873 221.760834,250.554031 222.276367,250.677536 
	C224.250153,256.312378 223.178787,256.706543 208.439972,255.548370 
	C208.439972,245.599319 208.439972,235.609665 208.439972,225.297821 
	C210.290833,225.297821 212.033157,225.297821 214.709488,225.297821 
	C214.709488,230.355164 214.709488,235.410431 214.709763,240.957855 
z"/>
<path fill="#5A1ADC" opacity="1.000000" stroke="none" 
	d="
M200.609131,87.014519 
	C202.643936,92.942039 206.282883,95.708656 212.673126,94.803688 
	C215.585556,94.391235 218.611710,94.781746 221.975525,94.896141 
	C218.262802,95.102074 214.152557,95.431557 210.061386,95.271980 
	C206.681000,95.140129 204.679504,96.250648 203.062149,99.358269 
	C200.108246,105.033852 196.615891,110.429169 193.070007,116.018005 
	C190.721588,105.857155 191.019043,96.088242 198.500687,87.791855 
	C198.889526,87.360680 199.659134,87.272903 200.609131,87.014519 
z"/>
<path fill="#5A1ADC" opacity="1.000000" stroke="none" 
	d="
M225.436951,95.423828 
	C226.578033,94.962814 227.880142,94.887512 229.476349,95.117065 
	C229.463837,97.155487 229.763245,99.810371 228.753296,100.474686 
	C221.620956,105.166206 219.929886,113.503471 215.515381,119.942734 
	C208.810043,129.723618 203.509293,140.469543 197.662369,150.834030 
	C196.949127,152.098328 196.547073,153.538208 196.000824,154.896729 
	C195.370560,155.013550 194.740311,155.130371 193.789780,155.221802 
	C200.579712,142.529617 207.672363,129.852905 214.808105,117.200516 
	C217.976410,111.582802 221.302979,106.053085 224.395340,100.394691 
	C225.130722,99.049118 225.214478,97.347435 225.436951,95.423828 
z"/>
<path fill="#764DF2" opacity="1.000000" stroke="none" 
	d="
M199.044403,176.922379 
	C199.968826,177.453827 200.893234,177.985291 201.885803,178.792618 
	C201.378448,180.189789 200.802948,181.311096 199.719452,182.841766 
	C198.761719,184.229523 198.311966,185.207901 197.862213,186.186279 
	C197.680771,186.612183 197.499344,187.038086 197.077087,187.719757 
	C195.405060,189.214859 193.973877,190.454224 192.542679,191.693573 
	C192.027191,191.630798 191.511688,191.568008 190.996201,191.505234 
	C190.996201,187.256699 190.996201,183.008179 191.417526,178.345306 
	C194.240707,177.594772 196.642548,177.258575 199.044403,176.922379 
z"/>
<path fill="#5328A7" opacity="1.000000" stroke="none" 
	d="
M195.946503,77.251587 
	C195.732010,77.087379 195.517502,76.923164 195.017929,76.471306 
	C210.763321,76.043068 226.793732,75.892471 242.824326,75.767838 
	C247.785110,75.729271 252.752930,75.630928 257.701752,75.877045 
	C258.631439,75.923279 259.486328,77.473984 260.114197,78.520554 
	C259.179504,78.272507 258.506348,77.834358 257.075745,77.319504 
	C236.194382,77.245743 216.070450,77.248665 195.946503,77.251587 
z"/>
<path fill="#5A1ADC" opacity="1.000000" stroke="none" 
	d="
M204.801453,157.192612 
	C207.361267,156.996094 210.233780,156.918320 213.445404,156.907745 
	C210.894409,157.087097 208.004272,157.199234 204.801453,157.192612 
z"/>
<path fill="#6946D2" opacity="1.000000" stroke="none" 
	d="
M198.048676,185.995331 
	C198.311966,185.207901 198.761719,184.229523 199.446655,183.098434 
	C199.199600,183.898605 198.717361,184.851501 198.048676,185.995331 
z"/>
<path fill="#5A1ADC" opacity="1.000000" stroke="none" 
	d="
M124.916519,76.037216 
	C124.884254,76.031433 125.047829,76.015274 125.087372,76.002625 
	C125.126915,75.989983 124.948784,76.042992 124.916519,76.037216 
z"/>
<path fill="#5B19E1" opacity="1.000000" stroke="none" 
	d="
M196.014145,167.984573 
	C196.915619,169.457245 197.817078,170.929916 198.458237,172.696960 
	C196.282288,172.371796 194.352890,171.791290 192.454956,171.121628 
	C190.606949,170.469543 188.791168,169.726135 186.961258,169.022812 
	C186.620636,168.288101 186.280014,167.553406 186.006104,166.137314 
	C187.653961,161.343292 185.242966,160.824753 182.061249,161.000061 
	C181.063095,158.947815 180.064941,156.895584 178.988617,154.101807 
	C175.473129,146.666565 172.081955,139.948135 168.530457,133.315567 
	C168.156311,132.616852 166.838196,132.423615 165.958023,131.995865 
	C165.021103,130.546982 164.084183,129.098099 163.211639,127.083633 
	C162.134460,124.697800 160.992905,122.877533 159.851364,121.057274 
	C159.234863,120.267128 158.618378,119.476974 158.138123,118.087967 
	C157.622314,115.004570 157.255005,112.397156 156.248703,110.065529 
	C154.882172,106.899269 155.777603,105.409454 159.018402,104.966866 
	C162.677505,111.386246 166.336594,117.805626 170.080750,124.927643 
	C171.114044,126.415100 172.062271,127.199913 173.010498,127.984741 
	C177.962250,136.753601 182.913986,145.522461 187.824173,154.927429 
	C188.525360,156.712753 189.268097,157.861969 190.010849,159.011185 
	C190.914810,160.151947 191.818771,161.292709 192.673111,162.995438 
	C192.039017,166.346375 191.636597,168.995895 196.014145,167.984573 
z"/>
<path fill="#5B19E1" opacity="1.000000" stroke="none" 
	d="
M145.989746,81.000130 
	C149.303024,87.091652 152.616302,93.183167 155.681671,99.809204 
	C151.999146,103.781876 149.788879,99.338142 146.937149,99.023895 
	C146.634842,98.556152 146.332550,98.088409 146.106262,97.143219 
	C145.771683,96.122154 145.361099,95.578529 144.950500,95.034904 
	C144.950500,95.034904 144.980789,94.997139 144.949753,94.682480 
	C144.263199,93.589211 143.607681,92.810593 142.952148,92.031982 
	C142.952148,92.031982 142.985764,91.995705 142.955109,91.624649 
	C141.077850,82.427353 139.929779,81.255150 132.916458,81.035309 
	C132.916458,81.035309 132.451813,81.010124 132.221161,80.978539 
	C133.559280,79.965927 135.018707,78.615112 136.728104,78.109650 
	C138.381409,77.620766 140.292084,78.002335 142.624115,78.319916 
	C144.102264,79.425560 145.046005,80.212845 145.989746,81.000130 
z"/>
<path fill="#5B1AE1" opacity="1.000000" stroke="none" 
	d="
M146.982544,99.385597 
	C149.788879,99.338142 151.999146,103.781876 155.722534,100.167984 
	C156.994781,101.422417 157.978241,102.852570 158.990051,104.624794 
	C155.777603,105.409454 154.882172,106.899269 156.248703,110.065529 
	C157.255005,112.397156 157.622314,115.004570 158.107712,117.765121 
	C154.303360,111.943192 150.665634,105.845245 146.982544,99.385597 
z"/>
<path fill="#5B1AE1" opacity="1.000000" stroke="none" 
	d="
M187.047333,169.360901 
	C188.791168,169.726135 190.606949,170.469543 192.454956,171.121628 
	C194.352890,171.791290 196.282288,172.371796 198.603271,172.991211 
	C199.100876,174.114822 199.193146,175.238556 199.164917,176.642334 
	C196.642548,177.258575 194.240707,177.594772 191.420746,177.900146 
	C189.712891,175.145889 188.423141,172.422440 187.047333,169.360901 
z"/>
<path fill="#5B1AE1" opacity="1.000000" stroke="none" 
	d="
M165.989532,132.359161 
	C166.838196,132.423615 168.156311,132.616852 168.530457,133.315567 
	C172.081955,139.948135 175.473129,146.666565 178.916626,153.762390 
	C174.622223,147.017136 170.321625,139.869797 165.989532,132.359161 
z"/>
<path fill="#5B1AE1" opacity="1.000000" stroke="none" 
	d="
M133.122879,81.301315 
	C139.929779,81.255150 141.077850,82.427353 142.944397,91.644447 
	C139.752640,88.545975 136.540970,85.056648 133.122879,81.301315 
z"/>
<path fill="#5B1AE1" opacity="1.000000" stroke="none" 
	d="
M182.125183,161.331635 
	C185.242966,160.824753 187.653961,161.343292 185.981567,165.827301 
	C184.656616,164.686859 183.422867,163.175018 182.125183,161.331635 
z"/>
<path fill="#5B1AE1" opacity="1.000000" stroke="none" 
	d="
M159.939240,121.396729 
	C160.992905,122.877533 162.134460,124.697800 163.112717,126.777252 
	C161.975327,125.269691 161.001221,123.502937 159.939240,121.396729 
z"/>
<path fill="#5B1AE1" opacity="1.000000" stroke="none" 
	d="
M143.017456,92.338287 
	C143.607681,92.810593 144.263199,93.589211 144.941147,94.702126 
	C144.336639,94.239143 143.709717,93.441872 143.017456,92.338287 
z"/>
<path fill="#5B1AE1" opacity="1.000000" stroke="none" 
	d="
M145.007965,95.314316 
	C145.361099,95.578529 145.771683,96.122154 146.037140,96.869858 
	C145.616486,96.580536 145.340958,96.087128 145.007965,95.314316 
z"/>
<path fill="#5B19E1" opacity="1.000000" stroke="none" 
	d="
M196.327850,154.803345 
	C196.547073,153.538208 196.949127,152.098328 197.662369,150.834030 
	C203.509293,140.469543 208.810043,129.723618 215.515381,119.942734 
	C219.929886,113.503471 221.620956,105.166206 228.753296,100.474686 
	C229.763245,99.810371 229.463837,97.155487 229.875427,95.085403 
	C234.069580,92.465813 238.158768,90.182762 242.625061,87.939636 
	C240.321503,93.274086 237.841248,98.682053 234.920807,103.840828 
	C227.558960,116.845055 219.723328,129.588455 212.632614,142.735718 
	C209.010391,149.451859 202.350098,151.235031 196.327850,154.803345 
z"/>
<path fill="#5F1AE8" opacity="1.000000" stroke="none" 
	d="
M196.019211,77.577194 
	C216.070450,77.248665 236.194382,77.245743 256.807281,77.340408 
	C256.415222,78.169144 255.534225,78.900284 254.150513,80.036537 
	C250.444031,82.624001 247.240265,84.806358 243.757339,86.988770 
	C243.292114,86.986160 243.106033,86.983482 242.919937,86.980797 
	C241.244598,86.299133 239.576523,85.048531 237.892761,85.027061 
	C225.904449,84.874161 213.912933,84.972328 201.454697,85.046936 
	C199.355270,82.703140 197.723587,80.302979 196.019211,77.577194 
z"/>
<path fill="#8B4FFB" opacity="1.000000" stroke="none" 
	d="
M244.036499,86.988708 
	C247.240265,84.806358 250.444031,82.624001 253.941971,80.239082 
	C256.132904,84.011497 253.125763,86.673698 251.133255,89.122795 
	C250.480789,89.924789 247.110931,88.515991 244.584579,87.817078 
	C244.135757,87.340187 244.086136,87.164452 244.036499,86.988708 
z"/>
<path fill="#5B19E1" opacity="1.000000" stroke="none" 
	d="
M243.757339,86.988770 
	C244.086136,87.164452 244.135757,87.340187 244.257355,87.780960 
	C244.103928,88.052025 243.878525,88.058067 243.316406,88.032120 
	C242.945007,87.831741 242.910339,87.663345 242.897797,87.237877 
	C243.106033,86.983482 243.292114,86.986160 243.757339,86.988770 
z"/>
<path fill="#111114" opacity="1.000000" stroke="none" 
	d="
M250.215714,243.532684 
	C249.138184,242.598724 247.729889,241.594543 247.834244,240.785400 
	C248.122238,238.552094 249.042618,236.400360 249.776703,234.008545 
	C253.985779,239.285690 254.182159,242.562592 250.215714,243.532684 
z"/>
<path fill="#111114" opacity="1.000000" stroke="none" 
	d="
M179.932831,239.838837 
	C181.094238,246.147202 176.737488,242.426483 173.759842,244.215729 
	C175.046967,239.948669 175.933487,237.009735 177.239090,232.681427 
	C178.470673,235.913513 179.153320,237.704971 179.932831,239.838837 
z"/>
<path fill="#5B1AE1" opacity="1.000000" stroke="none" 
	d="
M195.936035,167.664154 
	C191.636597,168.995895 192.039017,166.346375 192.815704,163.276413 
	C193.957916,164.444855 194.907913,165.894287 195.936035,167.664154 
z"/>
<path fill="#5B1AE1" opacity="1.000000" stroke="none" 
	d="
M190.158020,158.778290 
	C189.268097,157.861969 188.525360,156.712753 187.902084,155.278381 
	C188.782761,156.177292 189.543976,157.361343 190.158020,158.778290 
z"/>
<path fill="#5B1AE1" opacity="1.000000" stroke="none" 
	d="
M172.927887,127.668640 
	C172.062271,127.199913 171.114044,126.415100 170.091644,125.309555 
	C170.960068,125.776733 171.902679,126.564644 172.927887,127.668640 
z"/>
<path fill="#5B1AE1" opacity="1.000000" stroke="none" 
	d="
M145.912384,80.681419 
	C145.046005,80.212845 144.102264,79.425560 143.079132,78.320206 
	C143.944855,78.789009 144.889938,79.575859 145.912384,80.681419 
z"/>
</svg>